<svg xmlns="http://www.w3.org/2000/svg" width="50.002" height="37.04" viewBox="0 0 50.002 37.04">
    <path data-name="icon_people" d="M-2833.37-814.48a.96.96 0 0 1-.96-.959.961.961 0 0 1 .96-.96h10.36c-.01-.041-.01-.08-.02-.13l-1.3-7.259c-.7-4.441-3.631-6.84-6.03-6.84a5.791 5.791 0 0 0-4.621 2.98.97.97 0 0 1-1.33.3.97.97 0 0 1-.3-1.33 7.681 7.681 0 0 1 6.24-3.87 7.071 7.071 0 0 1 5.08 2.39 11.362 11.362 0 0 1 2.85 6.08l1.3 7.259a11.977 11.977 0 0 1 .14 1.34 1 1 0 0 1-.26.72.976.976 0 0 1-.69.28zm-22.37 0a.96.96 0 0 1-.7-.3.989.989 0 0 1-.27-.71c.03-.52.08-1.05.16-1.58l1.509-8.879a13.646 13.646 0 0 1 3.271-7.17 8 8 0 0 1 5.81-2.81 8 8 0 0 1 5.81 2.81 13.644 13.644 0 0 1 3.27 7.17l1.51 8.879a13.8 13.8 0 0 1 .16 1.58.935.935 0 0 1-.27.71.918.918 0 0 1-.69.3zm2.62-11.17-1.51 8.88c-.03.12-.04.25-.06.37h17.47c-.01-.13-.04-.25-.049-.37l-1.51-8.88c-.83-5.42-4.31-8.34-7.17-8.34s-6.341 2.92-7.171 8.34zm-16.91 11.17a.96.96 0 0 1-.7-.3.987.987 0 0 1-.27-.71c.03-.45.07-.89.14-1.34l1.3-7.26a11.5 11.5 0 0 1 2.85-6.08 7.087 7.087 0 0 1 5.08-2.39 7.681 7.681 0 0 1 6.24 3.87.952.952 0 0 1-.3 1.33.952.952 0 0 1-1.33-.3 5.767 5.767 0 0 0-4.62-2.98c-2.4 0-5.34 2.4-6.03 6.84l-1.3 7.259c0 .041-.01.08-.01.131h10.36a.96.96 0 0 1 .959.959.947.947 0 0 1-.95.97zm33.05-24.87a6.628 6.628 0 0 1 6.62-6.62 6.628 6.628 0 0 1 6.619 6.62 6.64 6.64 0 0 1-6.619 6.62 6.628 6.628 0 0 1-6.62-6.62zm1.929 0a4.7 4.7 0 0 0 4.691 4.69 4.7 4.7 0 0 0 4.69-4.69 4.7 4.7 0 0 0-4.69-4.69 4.7 4.7 0 0 0-4.691 4.69zm-33.189 0a6.628 6.628 0 0 1 6.619-6.62 6.628 6.628 0 0 1 6.621 6.62 6.634 6.634 0 0 1-6.621 6.62 6.628 6.628 0 0 1-6.619-6.62zm1.93 0a4.7 4.7 0 0 0 4.69 4.69 4.7 4.7 0 0 0 4.69-4.69 4.7 4.7 0 0 0-4.69-4.69 4.7 4.7 0 0 0-4.69 4.69zm12.811-4.63a7.551 7.551 0 0 1 7.539-7.539 7.545 7.545 0 0 1 7.54 7.539 7.545 7.545 0 0 1-7.54 7.54 7.551 7.551 0 0 1-7.54-7.54zm1.92 0a5.625 5.625 0 0 0 5.62 5.62 5.625 5.625 0 0 0 5.62-5.62 5.625 5.625 0 0 0-5.62-5.62 5.625 5.625 0 0 0-5.621 5.62z" transform="translate(2871.001 851.52)" style="fill:#666"/>
</svg>
