<svg xmlns="http://www.w3.org/2000/svg" width="44.927" height="41" viewBox="0 0 44.927 41">
    <defs>
        <clipPath id="5jvnfmct8a">
            <path data-name="사각형 18" style="fill:none" d="M0 0h44.927v41H0z"/>
        </clipPath>
    </defs>
    <g data-name="그룹 42" style="clip-path:url(#5jvnfmct8a)">
        <path data-name="패스 163" d="M43.652 21.437a11.093 11.093 0 0 1-2.265 1.391c-.019.007-.04.01-.059.019a26.116 26.116 0 0 1-5.756 1.8l-.062.012c-.4.081-.806.157-1.224.228l-.448.076c-.246.041-.5.076-.752.118a75.243 75.243 0 0 1-9.717.733h-.4l-.512.007h-.907a77.882 77.882 0 0 1-8.328-.544l-.3-.038q-.5-.065-1.007-.139c-.323-.048-.644-.1-.956-.152l-.244-.039a28.548 28.548 0 0 1-7.131-2.055c-.019-.009-.04-.012-.059-.019a11.062 11.062 0 0 1-2.262-1.395.786.786 0 0 0-1.092.1.75.75 0 0 0 .1 1.07 12.307 12.307 0 0 0 2.257 1.431l1.341 12.485a.763.763 0 0 0 .538.645.785.785 0 0 0 .818-.227l8.881-10.035c.2.022.4.046.6.065v13.271a.752.752 0 0 0 .227.537.783.783 0 0 0 .548.222h13.951a.782.782 0 0 0 .548-.222.752.752 0 0 0 .227-.537V26.969c.2-.02.407-.044.61-.066l8.873 10.039a.784.784 0 0 0 .822.231.762.762 0 0 0 .538-.652l1.341-12.489a12.286 12.286 0 0 0 2.257-1.431.75.75 0 0 0 .1-1.07.786.786 0 0 0-1.091-.1zM5.231 34.623 4.17 24.746c.05.02.105.037.155.057q.734.278 1.514.517l.148.045a41.713 41.713 0 0 0 6.274 1.313zm23.427 4.859H16.265V27.108c1.162.087 2.255.142 3.253.177l.461.016.486.014c.31.007.6.013.881.017h.262c.3 0 .592.005.852.005s.548 0 .852-.005h.262c.28 0 .572-.009.881-.017l.487-.014.461-.016c1-.035 2.091-.089 3.253-.177zm12.095-14.736-1.06 9.877-7.026-7.946a41.771 41.771 0 0 0 6.235-1.3l.2-.06q.761-.234 1.478-.506l.173-.063z"/>
        <path data-name="패스 164" d="m2.536 2.779 1.341 12.484a.763.763 0 0 0 .538.645.785.785 0 0 0 .818-.227l8.88-10.035c.2.022.4.046.6.065v13.272a.752.752 0 0 0 .227.537.783.783 0 0 0 .548.222h13.944a.783.783 0 0 0 .548-.222.752.752 0 0 0 .227-.537V5.711c.2-.02.407-.044.61-.066l8.873 10.039a.784.784 0 0 0 .822.231.762.762 0 0 0 .538-.652l1.34-12.489a12.269 12.269 0 0 0 2.258-1.432.749.749 0 0 0 .1-1.07.786.786 0 0 0-1.092-.1 11.1 11.1 0 0 1-2.259 1.393.673.673 0 0 0-.066.02 26.135 26.135 0 0 1-5.773 1.8c-.424.086-.863.168-1.31.246l-.346.058a52.57 52.57 0 0 1-2.054.3l-.065.01a77.781 77.781 0 0 1-8.407.553h-.4l-.518.01h-.908a78.03 78.03 0 0 1-8.316-.542l-.332-.042q-.482-.062-.967-.134c-.335-.05-.668-.1-.992-.152l-.2-.034a28.547 28.547 0 0 1-7.146-2.059c-.02-.009-.042-.012-.062-.02A11.072 11.072 0 0 1 1.271.178a.786.786 0 0 0-1.092.1.75.75 0 0 0 .1 1.07 12.28 12.28 0 0 0 2.257 1.43zm2.695 10.587L4.17 3.488l.035.013c.531.2 1.084.393 1.651.566l.109.033a41.54 41.54 0 0 0 6.3 1.319zm23.426 4.858H16.265V5.85c1.162.088 2.257.142 3.258.177l.456.015.489.015c.31.007.6.013.881.017h.262c.3 0 .592.005.852.005s.548 0 .852-.005h.262c.279 0 .571-.009.879-.017.159 0 .325-.009.491-.015.149 0 .3-.009.453-.015 1-.035 2.1-.089 3.26-.178zM40.752 3.488l-1.06 9.877-7.026-7.946a41.655 41.655 0 0 0 6.25-1.307l.181-.053q.8-.245 1.549-.531l.111-.039z"/>
        <path data-name="패스 165" d="m205.865 90.486-1.071-2.126a.814.814 0 0 0-1.389 0l-1.071 2.126-2.4.342a.77.77 0 0 0-.621.516.748.748 0 0 0 .192.775l1.734 1.661-.41 2.339a.752.752 0 0 0 .308.743.787.787 0 0 0 .816.058l2.144-1.1 2.144 1.1a.788.788 0 0 0 .816-.058.752.752 0 0 0 .308-.743l-.41-2.338 1.734-1.657a.748.748 0 0 0 .192-.775.771.771 0 0 0-.621-.516zm-.281 2.485a.75.75 0 0 0-.222.672l.213 1.215-1.115-.574a.79.79 0 0 0-.721 0l-1.115.574.213-1.215a.75.75 0 0 0-.222-.672l-.9-.861 1.247-.178a.773.773 0 0 0 .583-.415l.557-1.108.557 1.107a.774.774 0 0 0 .583.416l1.247.178z" transform="translate(-181.637 -80.338)" style="fill:#5032b7"/>
        <path data-name="패스 166" d="m205.83 335.486-1.071-2.126a.814.814 0 0 0-1.389 0l-1.071 2.126-2.4.342a.77.77 0 0 0-.624.517.748.748 0 0 0 .2.778l1.734 1.657-.41 2.339a.752.752 0 0 0 .308.743.788.788 0 0 0 .816.058l2.144-1.1 2.144 1.1a.788.788 0 0 0 .816-.058.752.752 0 0 0 .308-.743l-.41-2.338 1.734-1.657a.748.748 0 0 0 .2-.778.77.77 0 0 0-.624-.517zm-.281 2.485a.75.75 0 0 0-.222.672l.213 1.215-1.115-.574a.79.79 0 0 0-.721 0l-1.115.574.213-1.215a.75.75 0 0 0-.222-.672l-.9-.861 1.247-.178a.773.773 0 0 0 .583-.415l.557-1.108.557 1.107a.774.774 0 0 0 .583.416l1.247.178z" transform="translate(-181.603 -304.081)" style="fill:#ff7328"/>
    </g>
</svg>
