<svg xmlns="http://www.w3.org/2000/svg" width="37" height="37" viewBox="0 0 37 37">
    <path data-name="icon_time" d="M6.5 25A18.5 18.5 0 1 1 25 43.5 18.522 18.522 0 0 1 6.5 25zm19.45 12.05v4.523A16.631 16.631 0 0 0 41.573 25.95H37.05a.95.95 0 1 1 0-1.9h4.523A16.63 16.63 0 0 0 25.95 8.427V13a.95.95 0 1 1-1.9 0V8.427A16.629 16.629 0 0 0 8.427 24.05H13a.95.95 0 1 1 0 1.9H8.427A16.63 16.63 0 0 0 24.05 41.573V37.05a.949.949 0 0 1 .95-.95.983.983 0 0 1 .95.95zm-1.65-11.4-6-6a.91.91 0 0 1 0-1.35.95.95 0 0 1 1.35 0L25 23.65l4-4a.91.91 0 0 1 1.35 0 .95.95 0 0 1 0 1.35l-4.65 4.65a.968.968 0 0 1-1.4 0z" transform="translate(-6.5 -6.5)" style="fill:#666"/>
</svg>
