<svg xmlns="http://www.w3.org/2000/svg" width="45" height="45" viewBox="0 0 45 45">
    <defs>
        <clipPath id="fi2npkpgsa">
            <path data-name="사각형 16" style="fill:none" d="M0 0h45v45H0z"/>
        </clipPath>
    </defs>
    <g data-name="그룹 40" style="clip-path:url(#fi2npkpgsa)">
        <path data-name="패스 151" d="M201.966 287.031h11.25a.7.7 0 0 0 .7-.7V280.7a.7.7 0 0 0-.7-.7h-11.25a.7.7 0 0 0-.7.7v5.625a.7.7 0 0 0 .7.7m.7-5.625h9.844v4.219h-9.844z" transform="translate(-185.09 -257.5)" style="fill:#5032b7"/>
        <path data-name="패스 152" d="M44.3 43.593h-1.409v-22.5H44.3a.7.7 0 0 0 .646-.98l-4.222-9.843a.7.7 0 0 0-.646-.426h-9.844a.703.703 0 0 0 0 1.406h9.38l3.616 8.437H31.64v-6.328a.7.7 0 0 0-.389-.629L23.2 8.705V5.624h4.922a.7.7 0 0 0 .7-.7V.7a.7.7 0 0 0-.7-.7H22.5a.7.7 0 0 0-.7.7v8l-8.048 4.025a.7.7 0 0 0-.389.629v6.328H1.77l3.616-8.432h9.38a.703.703 0 0 0 0-1.406H4.922a.7.7 0 0 0-.646.426L.057 20.113a.7.7 0 0 0 .646.98h1.406v22.5H.7A.703.703 0 0 0 .7 45h43.6a.703.703 0 0 0 0-1.406zm-2.812 0h-9.847v-22.5h9.844zM27.422 4.219H23.2V1.406h4.219zM14.766 43.593v-9.14a.703.703 0 1 0-1.406 0v9.14H3.516v-22.5h9.844V31.64a.703.703 0 1 0 1.406 0V13.794L22.5 9.927l7.734 3.867v29.8"/>
        <path data-name="패스 153" d="M67.591 280h-5.625a.7.7 0 0 0-.7.7v4.219a.7.7 0 0 0 .7.7h5.625a.7.7 0 0 0 .7-.7V280.7a.7.7 0 0 0-.7-.7m-4.922 1.406h1.406v2.812h-1.406zm4.219 2.812h-1.406v-2.812h1.406z" transform="translate(-56.34 -257.5)" style="fill:#5032b7"/>
        <path data-name="패스 154" d="M411.966 285.625h5.625a.7.7 0 0 0 .7-.7V280.7a.7.7 0 0 0-.7-.7h-5.625a.7.7 0 0 0-.7.7v4.219a.7.7 0 0 0 .7.7m4.922-1.406h-1.406v-2.812h1.406zm-4.219-2.812h1.406v2.812h-1.406z" transform="translate(-378.216 -257.5)" style="fill:#5032b7"/>
        <path data-name="패스 155" d="M67.591 420h-5.625a.7.7 0 0 0-.7.7v4.219a.7.7 0 0 0 .7.7h5.625a.7.7 0 0 0 .7-.7V420.7a.7.7 0 0 0-.7-.7m-4.922 1.406h1.406v2.812h-1.406zm4.219 2.812h-1.406v-2.812h1.406z" transform="translate(-56.34 -386.251)" style="fill:#5032b7"/>
        <path data-name="패스 156" d="M411.966 425.625h5.625a.7.7 0 0 0 .7-.7V420.7a.7.7 0 0 0-.7-.7h-5.625a.7.7 0 0 0-.7.7v4.219a.7.7 0 0 0 .7.7m4.922-1.406h-1.406v-2.812h1.406zm-4.219-2.812h1.406v2.812h-1.406z" transform="translate(-378.216 -386.251)" style="fill:#5032b7"/>
        <path data-name="패스 157" d="M231.732 165.937a4.219 4.219 0 1 0-4.219-4.219 4.223 4.223 0 0 0 4.219 4.219m0-7.031a2.812 2.812 0 1 1-2.812 2.812 2.815 2.815 0 0 1 2.812-2.812" transform="translate(-209.231 -144.844)" style="fill:#ff7328"/>
        <path data-name="패스 158" d="M271.966 194.61a.7.7 0 0 0 .5-.206l.7-.7a.7.7 0 0 0-.994-.994l-.7.7a.7.7 0 0 0 .5 1.2z" transform="translate(-249.466 -177.032)" style="fill:#5032b7"/>
        <path data-name="패스 159" d="M228.6 429.844V420.7a.7.7 0 0 0-.7-.7h-8.437a.7.7 0 0 0-.7.7v9.14h1.406v-8.437h2.812v8.437h1.406v-8.437h2.812v8.437z" transform="translate(-201.178 -386.251)" style="fill:#5032b7"/>
    </g>
</svg>
