<svg xmlns="http://www.w3.org/2000/svg" width="45" height="39.375" viewBox="0 0 45 39.375">
    <defs>
        <clipPath id="gkibh5r2ea">
            <path data-name="사각형 19" style="fill:none" d="M0 0h45v39.375H0z"/>
        </clipPath>
    </defs>
    <g data-name="그룹 43" style="clip-path:url(#gkibh5r2ea)">
        <path data-name="패스 167" d="M25.253 28.686a4.922 4.922 0 1 0-5.506 0 7.04 7.04 0 0 0-4.278 6.469v3.516a.7.7 0 0 0 .7.7h12.656a.7.7 0 0 0 .7-.7v-3.515a7.041 7.041 0 0 0-4.272-6.47m-6.268-4.078a3.516 3.516 0 1 1 3.516 3.516 3.519 3.519 0 0 1-3.516-3.516m9.141 13.359h-11.25v-2.811a5.625 5.625 0 1 1 11.25 0z"/>
        <path data-name="패스 168" d="M257.256 376.833a.7.7 0 0 0-.693-.587h-1.406a.7.7 0 0 0-.693.587l-.7 4.219a.7.7 0 0 0 .2.613l1.406 1.406a.7.7 0 0 0 .994 0l1.406-1.406a.7.7 0 0 0 .2-.613zm-1.4 4.747-.653-.653.546-3.275h.215l.546 3.275z" transform="translate(-233.36 -346.012)" style="fill:#5032b7"/>
        <path data-name="패스 169" d="M40.721 28.686a4.922 4.922 0 1 0-5.506 0 7.04 7.04 0 0 0-4.278 6.47v3.516a.7.7 0 0 0 .7.7h12.656a.7.7 0 0 0 .7-.7v-3.516a7.041 7.041 0 0 0-4.272-6.47m-6.268-4.078a3.516 3.516 0 1 1 3.516 3.516 3.519 3.519 0 0 1-3.516-3.516m9.141 13.359h-11.25v-2.811a5.625 5.625 0 0 1 11.25 0z"/>
        <path data-name="패스 170" d="M449.756 376.833a.7.7 0 0 0-.693-.587h-1.406a.7.7 0 0 0-.693.587l-.7 4.219a.7.7 0 0 0 .2.613l1.406 1.406a.7.7 0 0 0 .994 0l1.406-1.406a.7.7 0 0 0 .2-.613zm-1.4 4.747-.653-.653.546-3.275h.215l.546 3.275z" transform="translate(-410.391 -346.012)" style="fill:#5032b7"/>
        <path data-name="패스 171" d="M9.784 28.686a4.922 4.922 0 1 0-5.506 0A7.04 7.04 0 0 0 0 35.156v3.516a.7.7 0 0 0 .7.7h12.659a.7.7 0 0 0 .7-.7v-3.516a7.041 7.041 0 0 0-4.275-6.47m-6.269-4.078a3.516 3.516 0 1 1 3.516 3.516 3.519 3.519 0 0 1-3.516-3.516m9.141 13.359H1.406v-2.811a5.625 5.625 0 0 1 11.25 0z"/>
        <path data-name="패스 172" d="M64.756 376.833a.7.7 0 0 0-.693-.587h-1.406a.7.7 0 0 0-.693.587l-.7 4.219a.7.7 0 0 0 .2.613l1.406 1.406a.7.7 0 0 0 .994 0l1.406-1.406a.7.7 0 0 0 .2-.613zm-1.4 4.747-.653-.653.546-3.275h.215l.546 3.275z" transform="translate(-56.329 -346.012)" style="fill:#5032b7"/>
        <path data-name="패스 173" d="M194.913 8.74 194.64 11a2.1 2.1 0 0 0 .918 2 2.143 2.143 0 0 0 2.2.091l1.786-.994 1.786 1a2.109 2.109 0 0 0 3.12-2.1l-.27-2.257 1.73-1.619a2.109 2.109 0 0 0-1.148-3.628l-2.334-.329-1-2a2.11 2.11 0 0 0-3.775 0l-1 1.995-2.334.329a2.109 2.109 0 0 0-1.148 3.628zm-.959-3.37a.7.7 0 0 1 .572-.484l2.7-.381a.7.7 0 0 0 .531-.383l1.16-2.325a.73.73 0 0 1 1.259 0l1.16 2.326a.7.7 0 0 0 .531.383l2.7.381a.7.7 0 0 1 .382 1.209l-1.99 1.863a.7.7 0 0 0-.218.6l.316 2.611a.7.7 0 0 1-.306.668.714.714 0 0 1-.734.03l-2.128-1.186a.713.713 0 0 0-.342-.089.7.7 0 0 0-.342.089l-2.128 1.186a.71.71 0 0 1-.735-.03.7.7 0 0 1-.306-.668l.316-2.611a.7.7 0 0 0-.217-.6l-1.99-1.863a.707.707 0 0 1-.191-.725z" transform="translate(-177.046)" style="fill:#ff7328"/>
        <path data-name="패스 174" d="M13.47 6.973a16.263 16.263 0 0 0-6.872 10.478.7.7 0 0 0 .565.818.639.639 0 0 0 .128.012.7.7 0 0 0 .691-.576 14.851 14.851 0 0 1 6.275-9.567.703.703 0 1 0-.786-1.166z"/>
        <path data-name="패스 175" d="M37.019 17.705a.7.7 0 0 0 .69.576.666.666 0 0 0 .128-.012.7.7 0 0 0 .565-.818A16.261 16.261 0 0 0 31.53 6.973a.703.703 0 1 0-.786 1.166 14.855 14.855 0 0 1 6.275 9.567z"/>
    </g>
</svg>
