<svg xmlns="http://www.w3.org/2000/svg" width="45" height="26.829" viewBox="0 0 45 26.829">
    <defs>
        <clipPath id="1ekibl59ua">
            <path data-name="사각형 17" style="fill:none" d="M0 0h26.829v45H0z"/>
        </clipPath>
    </defs>
    <g data-name="그룹 41" style="clip-path:url(#1ekibl59ua)" transform="rotate(90 22.5 22.5)">
        <path data-name="패스 160" d="m251.993 111.372-2.824-5.625a.736.736 0 0 0-1.263 0l-2.824 5.625a.7.7 0 0 0-.074.314V138.4a3.53 3.53 0 0 0 7.06 0v-26.714a.7.7 0 0 0-.074-.314zm-5.574 22.111h4.236v1.406h-4.236zm2.118-25.849 1.682 3.35h-1.682a.7.7 0 1 0 0 1.406h2.118v19.687h-4.236v-20.224zm0 32.88a2.116 2.116 0 0 1-2.118-2.109V136.3h4.236v2.1a2.116 2.116 0 0 1-2.118 2.109" transform="translate(-225.239 -96.921)" style="fill:#ff7328"/>
        <path data-name="패스 161" d="M6.986 1.795a.736.736 0 0 0-1.263 0L3.57 6.084a7.047 7.047 0 0 0-.745 3.144v29.444h-.707a.705.705 0 0 1-.706-.7v-8.441a.706.706 0 0 0-1.412 0v8.437a2.116 2.116 0 0 0 2.118 2.11h.706v1.406a.7.7 0 0 0 .706.7h.706v2.109a.7.7 0 0 0 .706.7h2.824a.7.7 0 0 0 .706-.7v-2.106h.706a.7.7 0 0 0 .706-.7V9.228a7.042 7.042 0 0 0-.745-3.144L6.985 1.795zm-2.75 8.053h4.236v26.714H4.236zm2.118-6.162 1.521 3.031a5.616 5.616 0 0 1 .533 1.725H4.3a5.639 5.639 0 0 1 .533-1.725l1.521-3.031zm.706 39.907H5.648v-1.406H7.06zm1.412-2.812H4.236v-2.813h4.236z"/>
        <path data-name="패스 162" d="M163.15 43.593h-4.236v-3.515h2.118a.7.7 0 1 0 0-1.406h-2.118v-2.813h2.118a.7.7 0 1 0 0-1.406h-2.118V31.64h2.118a.7.7 0 1 0 0-1.406h-2.118v-2.812h2.118a.7.7 0 1 0 0-1.406h-2.118V23.2h2.118a.7.7 0 1 0 0-1.406h-2.118v-2.81h2.118a.7.7 0 1 0 0-1.406h-2.118v-2.812h2.118a.7.7 0 1 0 0-1.406h-2.118v-2.813h2.118a.7.7 0 1 0 0-1.406h-2.118V6.328h2.118a.7.7 0 1 0 0-1.406h-2.118V1.406h8.472v4.922a.706.706 0 0 0 1.412 0V.7a.7.7 0 0 0-.706-.7h-9.884a.7.7 0 0 0-.706.7v43.6a.7.7 0 0 0 .706.7h4.942a.7.7 0 1 0 0-1.406" transform="translate(-144.794)" style="fill:#5032b7"/>
    </g>
</svg>
