<svg data-name="logo ds" xmlns="http://www.w3.org/2000/svg" width="173.71" height="17.97" viewBox="0 0 173.71 17.97">
    <g data-name="logo ds w">
        <path data-name="패스 13" d="M66.95 5.46H65.9V4.41l1.05 1.05z" style="fill:#018a45"/>
        <path data-name="패스 14" d="M65.9 4.41h1.05v1.05z" style="fill:#016629"/>
        <path data-name="패스 15" d="M66.95 5.46H65.9v1.05l1.05-1.05z" style="fill:#017a32"/>
        <path data-name="패스 16" d="M66.95 9.66H65.9V8.61l1.05 1.05z" style="fill:#5ab65a"/>
        <path data-name="패스 17" d="M68 10.72h-1.05V9.66L68 10.72z" style="fill:#61ba5a"/>
        <path data-name="패스 18" d="M66.95 9.66H65.9v1.06l1.05-1.05z" style="fill:#4d9f56"/>
        <path data-name="패스 19" d="M65.9 10.72h1.05V9.66l-1.05 1.05z" style="fill:#66bf7f"/>
        <path data-name="패스 20" d="M66.95 11.76H65.9v-1.05z" style="fill:#73c8b9"/>
        <path data-name="패스 21" d="M65.9 10.71h1.05v1.05z" style="fill:#4db690"/>
        <path data-name="패스 22" d="M68 10.71h-1.05v1.05z" style="fill:#4da48a"/>
        <path data-name="패스 23" d="M66.95 11.76H65.9v1.05z" style="fill:#4db9b4"/>
        <path data-name="패스 24" d="M60.64 7.56h1.05V6.51l-1.05 1.05z" style="fill:#4dad30"/>
        <path data-name="패스 25" d="M60.64 7.56h1.05v1.05l-1.05-1.05z" style="fill:#73be1e"/>
        <path data-name="패스 26" d="M62.74 5.46h1.05V4.41z" style="fill:#1a852d"/>
        <path data-name="패스 27" d="M62.74 5.46h1.05v1.05z" style="fill:#40a629"/>
        <path data-name="패스 28" d="M63.8 6.51h-1.06V5.46l1.05 1.05z" style="fill:#4dac27"/>
        <path data-name="패스 29" d="M61.69 6.51h1.05V5.46l-1.05 1.05z" style="fill:#1a9432"/>
        <path data-name="패스 30" d="M64.85 5.46H63.8V4.41l1.05 1.05z" style="fill:#016d2c"/>
        <path data-name="패스 31" d="M64.85 5.46H63.8v1.05l1.05-1.05z" style="fill:#279a2f"/>
        <path data-name="패스 32" d="M62.74 7.56h-1.05V6.51l1.05 1.05z" style="fill:#59b224"/>
        <path data-name="패스 33" d="M61.69 6.51h1.05v1.05z" style="fill:#40a83a"/>
        <path data-name="패스 34" d="M63.8 6.51h-1.06v1.05l1.05-1.05z" style="fill:#4dad38"/>
        <path data-name="패스 35" d="M62.74 7.56h-1.05v1.05l1.05-1.05z" style="fill:#4dad38"/>
        <path data-name="패스 36" d="M63.8 4.41h1.05v1.05z" style="fill:#1a9432"/>
        <path data-name="패스 37" d="M64.85 5.46h1.05V4.41l-1.05 1.05z" style="fill:#4dac27"/>
        <path data-name="패스 38" d="M65.9 4.41h-1.05v1.05z" style="fill:#017a32"/>
        <path data-name="패스 39" d="M64.85 5.46h1.05v1.05z" style="fill:#1a873c"/>
        <path data-name="패스 40" d="M65.9 6.51h-1.05V5.46l1.05 1.05z" style="fill:#1a9432"/>
        <path data-name="패스 41" d="M63.8 6.51h1.05V5.46L63.8 6.51z" style="fill:#4dad38"/>
        <path data-name="패스 42" d="M62.74 7.56h1.05V6.51l-1.05 1.05z" style="fill:#66b823"/>
        <path data-name="패스 43" d="M62.74 7.56h1.05v1.05l-1.05-1.05z" style="fill:#66b934"/>
        <path data-name="패스 44" d="M63.8 8.61h-1.06V7.56l1.05 1.05z" style="fill:#7ac11f"/>
        <path data-name="패스 45" d="M61.69 8.61h1.05V7.56l-1.05 1.05z" style="fill:#8cc919"/>
        <path data-name="패스 46" d="M64.85 7.56H63.8V6.51l1.05 1.05z" style="fill:#80c52f"/>
        <path data-name="패스 47" d="M63.8 6.51h1.05v1.05z" style="fill:#40a629"/>
        <path data-name="패스 48" d="M65.9 6.51h-1.05v1.05z" style="fill:#55b13c"/>
        <path data-name="패스 49" d="M65.9 8.61h-1.05V7.56l1.05 1.05z" style="fill:#73be1e"/>
        <path data-name="패스 50" d="M64.85 7.56H63.8v1.05l1.05-1.05z" style="fill:#4dad30"/>
        <path data-name="패스 51" d="M63.8 8.61h1.05V7.56L63.8 8.61z" style="fill:#8cc919"/>
        <path data-name="패스 52" d="M61.69 8.61h1.05v1.05z" style="fill:#73be1e"/>
        <path data-name="패스 53" d="M62.74 9.66h1.05V8.61z" style="fill:#73c258"/>
        <path data-name="패스 54" d="M63.8 8.61h-1.06v1.05l1.05-1.05z" style="fill:#5ab336"/>
        <path data-name="패스 55" d="M62.74 9.66h1.05v1.06z" style="fill:#5ab65a"/>
        <path data-name="패스 56" d="M64.85 9.66H63.8V8.61l1.05 1.05z" style="fill:#4dad38"/>
        <path data-name="패스 57" d="M63.8 8.61h1.05v1.05z" style="fill:#73c045"/>
        <path data-name="패스 58" d="M64.85 9.66h1.05V8.61l-1.05 1.05z" style="fill:#66ba47"/>
        <path data-name="패스 59" d="M65.9 8.61h-1.05v1.05z" style="fill:#80c52f"/>
        <path data-name="패스 60" d="M64.85 9.66h1.05v1.06l-1.05-1.05z" style="fill:#5abb91"/>
        <path data-name="패스 61" d="M65.9 10.72h-1.05V9.66l1.05 1.05z" style="fill:#73c045"/>
        <path data-name="패스 62" d="M64.85 9.66H63.8v1.06l1.05-1.05z" style="fill:#5ab548"/>
        <path data-name="패스 63" d="M63.8 10.72h1.05V9.66l-1.05 1.06z" style="fill:#80cb93"/>
        <path data-name="패스 64" d="M62.74 11.76h1.05v-1.05z" style="fill:#4299a6"/>
        <path data-name="패스 65" d="M62.74 11.76h1.05v1.05z" style="fill:#35a1c9"/>
        <path data-name="패스 66" d="M63.8 12.81h-1.06v-1.05l1.05 1.05z" style="fill:#3787bc"/>
        <path data-name="패스 67" d="M61.69 12.81h1.05v-1.05z" style="fill:#4eaace"/>
        <path data-name="패스 68" d="M64.85 11.76H63.8v-1.05z" style="fill:#4db9b4"/>
        <path data-name="패스 69" d="M63.8 10.71h1.05v1.05z" style="fill:#5abb91"/>
        <path data-name="패스 70" d="M64.85 11.76h1.05v-1.05z" style="fill:#4db26d"/>
        <path data-name="패스 71" d="M65.9 10.71h-1.05v1.05z" style="fill:#4da48a"/>
        <path data-name="패스 72" d="M64.85 11.76h1.05v1.05z" style="fill:#359ea9"/>
        <path data-name="패스 73" d="M65.9 12.81h-1.05v-1.05z" style="fill:#3690c0"/>
        <path data-name="패스 74" d="M64.85 11.76H63.8v1.05z" style="fill:#3595a5"/>
        <path data-name="패스 75" d="M63.8 12.81h1.05v-1.05z" style="fill:#4eaace"/>
        <path data-name="패스 76" d="M62.74 13.87h-1.05v-1.05z" style="fill:#2066ac"/>
        <path data-name="패스 77" d="M61.69 12.81h1.05v1.05z" style="fill:#05759f"/>
        <path data-name="패스 78" d="M62.74 13.87h1.05v-1.05z" style="fill:#0860a8"/>
        <path data-name="패스 79" d="M63.8 12.81h-1.06v1.05l1.05-1.05z" style="fill:#0390bf"/>
        <path data-name="패스 80" d="M64.85 13.87H63.8v-1.05z" style="fill:#0580b7"/>
        <path data-name="패스 81" d="M63.8 12.81h1.05v1.05z" style="fill:#386cb0"/>
        <path data-name="패스 82" d="M65.9 12.81h-1.05v1.05z" style="fill:#377eb8"/>
        <path data-name="패스 83" d="M61.08 13.87a.179.179 0 0 1-.18-.18.211.211 0 0 1 .05-.13l.74-.74v1.05z" style="fill:#0a51a1"/>
        <path data-name="패스 84" d="M67.56 4.41a.179.179 0 0 1 .18.18.19.19 0 0 1-.05.13l-.74.74V4.41z" style="fill:#015221"/>
        <path data-name="패스 85" d="M58.54 1.25h1.05V2.3z" style="fill:#d8000d"/>
        <path data-name="패스 86" d="M59.59 2.3h-1.05V1.25z" style="fill:#ff1101"/>
        <path data-name="패스 87" d="M58.54 1.25h-1.05V2.3l1.05-1.05z" style="fill:#cb000d"/>
        <path data-name="패스 88" d="M57.49 2.3h1.05V1.25z" style="fill:#e60001"/>
        <path data-name="패스 89" d="M61.69 2.3h-1.05V1.25z" style="fill:#ff1101"/>
        <path data-name="패스 90" d="M60.64 1.25h-1.05V2.3l1.05-1.05z" style="fill:#ff1901"/>
        <path data-name="패스 91" d="M59.59 2.3h1.05V1.25z" style="fill:#e4000d"/>
        <path data-name="패스 92" d="M57.49 2.3h1.05v1.05z" style="fill:#ff2800"/>
        <path data-name="패스 93" d="M58.54 3.36h1.05V2.31z" style="fill:#ff3301"/>
        <path data-name="패스 94" d="M59.59 2.3h-1.05v1.05z" style="fill:#e61801"/>
        <path data-name="패스 95" d="M58.54 3.35h1.05V4.4l-1.05-1.05z" style="fill:#ff1901"/>
        <path data-name="패스 96" d="M60.64 3.36h-1.05V2.31l1.05 1.05z" style="fill:#ff1101"/>
        <path data-name="패스 97" d="M59.59 2.3h1.05v1.05z" style="fill:#fe1a0e"/>
        <path data-name="패스 98" d="M60.64 3.36h1.05V2.31z" style="fill:#fc1a1c"/>
        <path data-name="패스 99" d="M61.69 2.3h-1.05v1.05z" style="fill:#ff2800"/>
        <path data-name="패스 100" d="M60.64 3.35h1.05V4.4l-1.05-1.05z" style="fill:#ff2800"/>
        <path data-name="패스 101" d="M61.69 4.41h-1.05V3.36z" style="fill:#ff1901"/>
        <path data-name="패스 102" d="M60.64 3.35h-1.05V4.4l1.05-1.05z" style="fill:#fb0026"/>
        <path data-name="패스 103" d="M59.59 4.41h1.05V3.36z" style="fill:#ff4d01"/>
        <path data-name="패스 104" d="M58.54 5.46h1.05V4.41l-1.05 1.05z" style="fill:#ff7300"/>
        <path data-name="패스 105" d="M58.54 5.46h1.05v1.05z" style="fill:#ff4d01"/>
        <path data-name="패스 106" d="M59.59 6.51h-1.05V5.46l1.05 1.05z" style="fill:#ff8001"/>
        <path data-name="패스 107" d="M57.49 6.51h1.05V5.46z" style="fill:#ff6601"/>
        <path data-name="패스 108" d="M60.64 5.46h-1.05V4.41l1.05 1.05z" style="fill:#ff4000"/>
        <path data-name="패스 109" d="M59.59 4.41h1.05v1.05z" style="fill:#ff2800"/>
        <path data-name="패스 110" d="M60.64 5.46h1.05V4.41l-1.05 1.05z" style="fill:#ff4d01"/>
        <path data-name="패스 111" d="M61.69 4.41h-1.05v1.05z" style="fill:#ff3301"/>
        <path data-name="패스 112" d="M60.64 5.46h1.05v1.05z" style="fill:#ff6601"/>
        <path data-name="패스 113" d="M61.69 6.51h-1.05V5.46l1.05 1.05z" style="fill:#ff8001"/>
        <path data-name="패스 114" d="M60.64 5.46h-1.05v1.05l1.05-1.05z" style="fill:#ff5a00"/>
        <path data-name="패스 115" d="M59.59 6.51h1.05V5.46z" style="fill:#ff9901"/>
        <path data-name="패스 116" d="M58.54 7.56h-1.05V6.51l1.05 1.05z" style="fill:#ff6601"/>
        <path data-name="패스 117" d="M57.49 6.51h1.05v1.05z" style="fill:#ff8001"/>
        <path data-name="패스 118" d="M58.54 7.56h1.05V6.51l-1.05 1.05z" style="fill:#ff8001"/>
        <path data-name="패스 119" d="M59.59 6.51h-1.05v1.05z" style="fill:#ff9901"/>
        <path data-name="패스 120" d="M60.64 7.56h-1.05V6.51l1.05 1.05z" style="fill:#ff9901"/>
        <path data-name="패스 121" d="M59.59 6.51h1.05v1.05z" style="fill:#ff8001"/>
        <path data-name="패스 122" d="M61.69 6.51h-1.05v1.05z" style="fill:#ff7300"/>
        <path data-name="패스 123" d="M62.74 3.36h-1.05V2.31z" style="fill:#ee0026"/>
        <path data-name="패스 124" d="M63.8 4.41h-1.06V3.36l1.05 1.05z" style="fill:#fe1109"/>
        <path data-name="패스 125" d="M62.74 3.35h-1.05V4.4l1.05-1.05z" style="fill:#fe1a0e"/>
        <path data-name="패스 126" d="M61.69 4.41h1.05V3.36z" style="fill:#ff3301"/>
        <path data-name="패스 127" d="M62.74 5.46h-1.05V4.41l1.05 1.05z" style="fill:#ff4000"/>
        <path data-name="패스 128" d="M61.69 4.41h1.05v1.05z" style="fill:#fb292c"/>
        <path data-name="패스 129" d="M63.8 4.41h-1.06v1.05l1.05-1.05z" style="fill:#ff3301"/>
        <path data-name="패스 130" d="M62.74 5.46h-1.05v1.05l1.05-1.05z" style="fill:#ff4000"/>
        <path data-name="패스 131" d="M56.88 7.56a.182.182 0 0 1-.18-.19.211.211 0 0 1 .05-.13l.74-.74v1.05h-.61z" style="fill:#ff8c00"/>
        <path data-name="패스 132" d="M56.88 1.25a.179.179 0 0 0-.18.18.211.211 0 0 0 .05.13l.74.74V1.25z" style="fill:#b30001"/>
        <path d="M1.58 12.85c0-1.19 1.25-2.15 3.1-2.15s3.1.96 3.1 2.15S6.53 15 4.68 15s-3.1-.97-3.1-2.15zm1.45 0c0 .54.64 1.08 1.65 1.08s1.65-.54 1.65-1.08-.64-1.09-1.65-1.09-1.65.54-1.65 1.09zm32.75 1.33a.209.209 0 0 1-.21-.2V5.15a.209.209 0 0 1 .21-.2h.95a.209.209 0 0 1 .21.2v8.83a.209.209 0 0 1-.21.2h-.95zm-9.85 0a.209.209 0 0 1-.21-.2v-3.11h-.76a.3.3 0 0 1-.25-.12 22.173 22.173 0 0 1-2.22-3.07.074.074 0 0 0-.14 0l-1.53 3.08a.2.2 0 0 1-.18.12h-1.16a.22.22 0 0 1-.22-.21.18.18 0 0 1 .02-.1l2.61-5.14a.221.221 0 0 1 .23-.13h1.19a.141.141 0 0 1 .14.13.127.127 0 0 1-.01.06l-.34.68a.182.182 0 0 0 0 .2 22.54 22.54 0 0 0 2.63 3.67V5.15a.209.209 0 0 1 .21-.2h.95a.209.209 0 0 1 .21.2v1.98a.143.143 0 0 0 .14.14h1.34a.208.208 0 0 1 .21.19v.82a.209.209 0 0 1-.21.2h-1.34a.152.152 0 0 0-.15.14v5.35a.209.209 0 0 1-.21.2h-.95zm-9.75 0a.209.209 0 0 1-.21-.2V5.15a.209.209 0 0 1 .21-.2h.95a.209.209 0 0 1 .21.2v1.98a.145.145 0 0 0 .15.14h1.34a.208.208 0 0 1 .21.19v.81a.209.209 0 0 1-.21.2h-1.34a.152.152 0 0 0-.15.14v5.35a.209.209 0 0 1-.21.2h-.95zm23.85-.01a.209.209 0 0 1-.21-.2v-2.73a.209.209 0 0 1 .21-.2h.96a.209.209 0 0 1 .21.2v1.67s.04.08.08.08h4.24a.209.209 0 0 1 .21.2v.78a.209.209 0 0 1-.21.2h-5.49zm6.94-.76a.209.209 0 0 1-.21-.2v-.8a.209.209 0 0 1 .21-.2h8.56a.209.209 0 0 1 .21.2v.8a.209.209 0 0 1-.21.2zm-2.4-1.57a.209.209 0 0 1-.21-.2V8.61a.145.145 0 0 0-.14-.15h-.81a.149.149 0 0 0-.14.13 2.432 2.432 0 0 1-2.39 1.98 2.523 2.523 0 0 1-2.48-2.56v-.15a2.525 2.525 0 0 1 2.35-2.7h.12a2.431 2.431 0 0 1 2.38 1.96.181.181 0 0 0 .15.14h.8a.152.152 0 0 0 .15-.14V5.19a.209.209 0 0 1 .21-.2h.95a.209.209 0 0 1 .21.2v6.45a.209.209 0 0 1-.21.2h-.94zm-4.8-3.97c0 1.03.49 1.49 1.1 1.49s1.1-.47 1.1-1.49-.49-1.49-1.1-1.49-1.1.5-1.1 1.49zm-10.39.32c0-1.8 1.14-3.05 2.54-3.05s2.54 1.24 2.54 3.05-1.14 3.05-2.54 3.05-2.54-1.22-2.54-3.05zm1.42 0c0 1.29.5 1.87 1.12 1.87s1.12-.58 1.12-1.87-.5-1.87-1.12-1.87-1.12.63-1.12 1.87zm-20.93 0c0-1.8 1.14-3.05 2.54-3.05s2.54 1.24 2.54 3.05-1.14 3.05-2.54 3.05-2.54-1.22-2.54-3.05zm1.42 0c0 1.29.5 1.87 1.12 1.87s1.12-.58 1.12-1.87-.5-1.87-1.12-1.87-1.12.63-1.12 1.87zm36.61 2.7a.211.211 0 0 1-.21-.21.18.18 0 0 1 .02-.1l2.8-5.14a.229.229 0 0 1 .23-.13h1.19a.124.124 0 0 1 .13.12.127.127 0 0 1-.01.06l-.37.68a.152.152 0 0 0 0 .2 20.941 20.941 0 0 0 3.12 4.35c.06.06.07.16-.06.16h-1.37a.3.3 0 0 1-.25-.12 21.425 21.425 0 0 1-2.11-3.07.074.074 0 0 0-.14 0l-1.64 3.08a.224.224 0 0 1-.19.12h-1.16zM.21 10.45a.209.209 0 0 1-.21-.2v-.77a.209.209 0 0 1 .21-.2h3.63a.152.152 0 0 0 .15-.14v-.46a.145.145 0 0 0-.15-.14H1.82a.209.209 0 0 1-.21-.2V5.22a.209.209 0 0 1 .21-.2h5.74a.209.209 0 0 1 .21.2v.76a.209.209 0 0 1-.21.2H3.07s-.08.04-.08.08v1.03s.04.08.08.08h4.49a.209.209 0 0 1 .21.2v.77a.209.209 0 0 1-.21.2H5.51a.152.152 0 0 0-.15.14v.46a.145.145 0 0 0 .15.14h3.63a.209.209 0 0 1 .21.2v.78a.2.2 0 0 1-.21.2H.21z" style="fill:#222"/>
    </g>
    <path data-name="패스 395" d="M84.23 12.23c.51 0 .59.4.59 1.12s-.08 1.1-.59 1.1H73.78v-2.22h2.79V7.37h2.53v4.86zm-3.31-2.91V4.46c0-.34-.15-.42-.42-.42h-5.79V1.82h6.42a2.865 2.865 0 0 1 1.62.87 2.539 2.539 0 0 1 .8 1.37v5.26c0 .44-.48.55-1.33.55-.8 0-1.29-.11-1.29-.55zM85.48.51h2.62v5.74h2.87v2.28H88.1v7.67c0 .44-.47.55-1.33.55-.8 0-1.29-.1-1.29-.53z" style="fill:#222"/>
    <path data-name="패스 396" d="M100.72 1.6c.44 0 .51.32.51 1.03s-.08 1.06-.51 1.06h-9.56V1.6h3.65V0h2.6v1.6zm-4.58 2.7c2.36 0 4.05 1.41 4.05 3.29s-1.69 3.29-4.05 3.29-4.05-1.41-4.05-3.29 1.69-3.29 4.05-3.29zm6.19 9.69h-8.78v-2.15h10.37c.65 0 .99.29.99 1.08v4.52c0 .51-.59.53-1.29.53-.8 0-1.29-.08-1.29-.53v-3.46zm-6.19-7.64c-1.01 0-1.54.51-1.54 1.22 0 .74.53 1.25 1.54 1.25s1.54-.51 1.54-1.25c0-.7-.53-1.22-1.54-1.22zm6.38-6.03h2.58V4.5h2.87v2.19h-2.87v3.76c0 .49-.59.57-1.29.57-.82 0-1.29-.13-1.29-.57z" style="fill:#222"/>
    <path data-name="패스 397" d="M117.84 13.17c0 .42-.48.53-1.33.53-.8 0-1.29-.09-1.29-.53v-2.6h-7.14V8.5h15.73c.51 0 .59.32.59 1.04s-.08 1.03-.59 1.03h-5.96v2.6zm-5.36 4.46a2.386 2.386 0 0 1-1.39-.82 2.278 2.278 0 0 1-.74-1.23v-3.46h2.58v2.87c0 .34.15.49.44.49h8.25c.42 0 .49.44.49 1.08 0 .7-.08 1.06-.49 1.06h-9.14zM110.43.49h11.42v5.08a1.244 1.244 0 0 1-1.35 1.42h-7.75a2.811 2.811 0 0 1-1.56-.95 2.261 2.261 0 0 1-.76-1.29zm8.85 4.43V2.56h-6.29v2.03c0 .27.09.32.3.32h5.98z" style="fill:#222"/>
    <path data-name="패스 398" d="M135.24 12.8c.51 0 .59.4.59 1.12s-.08 1.1-.59 1.1h-10.45V12.8h4.12v-1.37a3.53 3.53 0 0 1-2.96-3.4c0-2 1.71-3.55 4.22-3.55s4.22 1.56 4.22 3.55a3.563 3.563 0 0 1-2.94 3.4v1.37h3.8zm-10.01-8.87V1.82h3.67V.19h2.53v1.63h3.19c.51 0 .59.34.59 1.06s-.08 1.04-.59 1.04h-9.38zm4.94 2.62a1.493 1.493 0 0 0-1.69 1.48 1.716 1.716 0 0 0 3.38 0 1.493 1.493 0 0 0-1.69-1.48zM136.5.51h2.62v5.74h2.87v2.28h-2.87v7.67c0 .44-.48.55-1.33.55-.8 0-1.29-.1-1.29-.53V.51z" style="fill:#222"/>
    <path data-name="패스 399" d="M147.31 8.55a14.308 14.308 0 0 1-3.72 4.5c-.38.29-.76.1-1.31-.49-.47-.49-.76-.89-.4-1.24 1.98-1.79 3.93-4.24 3.93-6.76V1.63h2.7v2.89c0 2.49 2.07 5 3.74 6.57.38.34.17.63-.38 1.22-.49.51-.82.82-1.2.49a14.12 14.12 0 0 1-3.36-4.25zM153.5.51h2.62v5.36h2.87v2.22h-2.87v8.11c0 .44-.48.55-1.33.55-.8 0-1.29-.1-1.29-.53V.51z" style="fill:#222"/>
    <path data-name="패스 400" d="M173.7 8.72c0 .46-.49.59-1.29.59s-1.29-.13-1.29-.59V5.55h-3.15a4.4 4.4 0 0 1-4.5 3.36 4.327 4.327 0 0 1-4.58-4.24 4.36 4.36 0 0 1 4.58-4.29 4.473 4.473 0 0 1 4.39 2.98h3.27V.32h2.58v8.4zm-10.24-6.17a2.022 2.022 0 0 0-2.07 2.13 2.08 2.08 0 0 0 4.16 0 2.027 2.027 0 0 0-2.09-2.13zm1.25 15.27a2.483 2.483 0 0 1-1.52-.85 2.356 2.356 0 0 1-.8-1.31v-5.43h2.56v1.73h5.96v-1.73h2.56v6.21a1.236 1.236 0 0 1-1.37 1.39h-7.41zm6.21-2.15v-1.62h-5.96v1.33c0 .19.09.29.25.29h5.72z" style="fill:#222"/>
</svg>
