<svg xmlns="http://www.w3.org/2000/svg" width="176.898" height="21" viewBox="0 0 176.898 21">
    <path data-name="패스 13" d="M236.939 55.588h-1.05v-1.051l1.05 1.052z" transform="translate(-169.49 -48.759)" style="fill:#018a45"/>
    <path data-name="패스 14" d="M235.889 54.537h1.05v1.052l-1.05-1.052z" transform="translate(-169.49 -48.759)" style="fill:#016629"/>
    <path data-name="패스 15" d="M236.939 58.1h-1.05v1.05l1.05-1.051z" transform="translate(-169.49 -51.27)" style="fill:#017a32"/>
    <path data-name="패스 16" d="M236.939 69.835h-1.05v-1.052l1.05 1.051z" transform="translate(-169.49 -58.801)" style="fill:#5ab65a"/>
    <path data-name="패스 17" d="M240.5 73.4h-1.051v-1.055L240.5 73.4z" transform="translate(-171.998 -61.312)" style="fill:#61ba5a"/>
    <path data-name="패스 18" d="M236.939 72.345h-1.05V73.4l1.05-1.051z" transform="translate(-169.49 -61.312)" style="fill:#4d9f56"/>
    <path data-name="패스 19" d="M235.889 73.4h1.05v-1.055l-1.05 1.051z" transform="translate(-169.49 -61.312)" style="fill:#66bf7f"/>
    <path data-name="패스 20" d="M236.939 76.957h-1.05v-1.052l1.05 1.052z" transform="translate(-169.49 -63.822)" style="fill:#73c8b9"/>
    <path data-name="패스 21" d="M235.889 75.905h1.05v1.052l-1.05-1.052z" transform="translate(-169.49 -63.822)" style="fill:#4db690"/>
    <path data-name="패스 22" d="M240.5 75.905h-1.051v1.052l1.051-1.052z" transform="translate(-171.998 -63.822)" style="fill:#4da48a"/>
    <path data-name="패스 23" d="M236.939 79.468h-1.05v1.051l1.05-1.051z" transform="translate(-169.49 -66.333)" style="fill:#4db9b4"/>
    <path data-name="패스 24" d="M218.082 62.711h1.051V61.66l-1.051 1.051z" transform="translate(-156.94 -53.78)" style="fill:#4dad30"/>
    <path data-name="패스 25" d="M218.082 65.221h1.051v1.051l-1.051-1.051z" transform="translate(-156.94 -56.29)" style="fill:#73be1e"/>
    <path data-name="패스 26" d="M225.2 55.588h1.052v-1.051l-1.052 1.051z" transform="translate(-161.959 -48.759)" style="fill:#1a852d"/>
    <path data-name="패스 27" d="M225.2 58.1h1.052v1.05L225.2 58.1z" transform="translate(-161.959 -51.27)" style="fill:#40a629"/>
    <path data-name="패스 28" d="M226.256 59.15H225.2V58.1l1.052 1.051z" transform="translate(-161.959 -51.27)" style="fill:#4dac27"/>
    <path data-name="패스 29" d="M221.644 59.15h1.051V58.1l-1.051 1.051z" transform="translate(-159.45 -51.27)" style="fill:#1a9432"/>
    <path data-name="패스 30" d="M229.817 55.588h-1.051v-1.051l1.051 1.052z" transform="translate(-164.47 -48.759)" style="fill:#016d2c"/>
    <path data-name="패스 31" d="M229.817 58.1h-1.051v1.05l1.051-1.051z" transform="translate(-164.47 -51.27)" style="fill:#279a2f"/>
    <path data-name="패스 32" d="M222.695 62.711h-1.051V61.66l1.051 1.051z" transform="translate(-159.45 -53.78)" style="fill:#59b224"/>
    <path data-name="패스 33" d="M221.644 61.66h1.051v1.051l-1.051-1.051z" transform="translate(-159.45 -53.78)" style="fill:#40a83a"/>
    <path data-name="패스 34" d="M226.256 61.66H225.2v1.051l1.052-1.051z" transform="translate(-161.959 -53.78)" style="fill:#4dad38"/>
    <path data-name="패스 35" d="M222.695 65.221h-1.051v1.051l1.051-1.051z" transform="translate(-159.45 -56.29)" style="fill:#4dad38"/>
    <path data-name="패스 36" d="M228.767 54.537h1.051v1.052l-1.051-1.052z" transform="translate(-164.47 -48.759)" style="fill:#1a9432"/>
    <path data-name="패스 37" d="M232.326 55.588h1.052v-1.051l-1.052 1.052z" transform="translate(-166.979 -48.759)" style="fill:#4dac27"/>
    <path data-name="패스 38" d="M233.378 54.537h-1.052v1.052l1.052-1.052z" transform="translate(-166.979 -48.759)" style="fill:#017a32"/>
    <path data-name="패스 39" d="M232.326 58.1h1.052v1.05l-1.052-1.05z" transform="translate(-166.979 -51.27)" style="fill:#1a873c"/>
    <path data-name="패스 40" d="M233.378 59.15h-1.052V58.1l1.052 1.051z" transform="translate(-166.979 -51.27)" style="fill:#1a9432"/>
    <path data-name="패스 41" d="M228.767 59.15h1.051V58.1l-1.051 1.051z" transform="translate(-164.47 -51.27)" style="fill:#4dad38"/>
    <path data-name="패스 42" d="M225.2 62.711h1.052V61.66l-1.052 1.051z" transform="translate(-161.959 -53.78)" style="fill:#66b823"/>
    <path data-name="패스 43" d="M225.2 65.221h1.052v1.051l-1.052-1.051z" transform="translate(-161.959 -56.29)" style="fill:#66b934"/>
    <path data-name="패스 44" d="M226.256 66.273H225.2v-1.052l1.052 1.051z" transform="translate(-161.959 -56.29)" style="fill:#7ac11f"/>
    <path data-name="패스 45" d="M221.644 66.273h1.051v-1.052l-1.051 1.051z" transform="translate(-159.45 -56.29)" style="fill:#8cc919"/>
    <path data-name="패스 46" d="M229.817 62.711h-1.051V61.66l1.051 1.051z" transform="translate(-164.47 -53.78)" style="fill:#80c52f"/>
    <path data-name="패스 47" d="M228.767 61.66h1.051v1.051l-1.051-1.051z" transform="translate(-164.47 -53.78)" style="fill:#40a629"/>
    <path data-name="패스 48" d="M233.378 61.66h-1.052v1.051l1.052-1.051z" transform="translate(-166.979 -53.78)" style="fill:#55b13c"/>
    <path data-name="패스 49" d="M233.378 66.273h-1.052v-1.052l1.052 1.051z" transform="translate(-166.979 -56.29)" style="fill:#73be1e"/>
    <path data-name="패스 50" d="M229.817 65.221h-1.051v1.051l1.051-1.051z" transform="translate(-164.47 -56.29)" style="fill:#4dad30"/>
    <path data-name="패스 51" d="M228.767 66.273h1.051v-1.052l-1.051 1.051z" transform="translate(-164.47 -56.29)" style="fill:#8cc919"/>
    <path data-name="패스 52" d="M221.644 68.783h1.051v1.051l-1.051-1.051z" transform="translate(-159.45 -58.801)" style="fill:#73be1e"/>
    <path data-name="패스 53" d="M225.2 69.835h1.052v-1.052l-1.052 1.052z" transform="translate(-161.959 -58.801)" style="fill:#73c258"/>
    <path data-name="패스 54" d="M226.256 68.783H225.2v1.051l1.052-1.051z" transform="translate(-161.959 -58.801)" style="fill:#5ab336"/>
    <path data-name="패스 55" d="M225.2 72.345h1.052V73.4l-1.052-1.055z" transform="translate(-161.959 -61.312)" style="fill:#5ab65a"/>
    <path data-name="패스 56" d="M229.817 69.835h-1.051v-1.052l1.051 1.051z" transform="translate(-164.47 -58.801)" style="fill:#4dad38"/>
    <path data-name="패스 57" d="M228.767 68.783h1.051v1.051l-1.051-1.051z" transform="translate(-164.47 -58.801)" style="fill:#73c045"/>
    <path data-name="패스 58" d="M232.326 69.835h1.052v-1.052l-1.052 1.051z" transform="translate(-166.979 -58.801)" style="fill:#66ba47"/>
    <path data-name="패스 59" d="M233.378 68.783h-1.052v1.051l1.052-1.051z" transform="translate(-166.979 -58.801)" style="fill:#80c52f"/>
    <path data-name="패스 60" d="M232.326 72.345h1.052V73.4l-1.052-1.051z" transform="translate(-166.979 -61.312)" style="fill:#5abb91"/>
    <path data-name="패스 61" d="M233.378 73.4h-1.052v-1.055l1.052 1.051z" transform="translate(-166.979 -61.312)" style="fill:#73c045"/>
    <path data-name="패스 62" d="M229.817 72.345h-1.051V73.4l1.051-1.051z" transform="translate(-164.47 -61.312)" style="fill:#5ab548"/>
    <path data-name="패스 63" d="M228.767 73.4h1.051v-1.055l-1.051 1.055z" transform="translate(-164.47 -61.312)" style="fill:#80cb93"/>
    <path data-name="패스 64" d="M225.2 76.957h1.052v-1.052l-1.052 1.052z" transform="translate(-161.959 -63.822)" style="fill:#4299a6"/>
    <path data-name="패스 65" d="M225.2 79.468h1.052v1.051l-1.052-1.051z" transform="translate(-161.959 -66.333)" style="fill:#35a1c9"/>
    <path data-name="패스 66" d="M226.256 80.519H225.2v-1.051l1.052 1.051z" transform="translate(-161.959 -66.333)" style="fill:#3787bc"/>
    <path data-name="패스 67" d="M221.644 80.519h1.051v-1.051l-1.051 1.051z" transform="translate(-159.45 -66.333)" style="fill:#4eaace"/>
    <path data-name="패스 68" d="M229.817 76.957h-1.051v-1.052l1.051 1.052z" transform="translate(-164.47 -63.822)" style="fill:#4db9b4"/>
    <path data-name="패스 69" d="M228.767 75.905h1.051v1.052l-1.051-1.052z" transform="translate(-164.47 -63.822)" style="fill:#5abb91"/>
    <path data-name="패스 70" d="M232.326 76.957h1.052v-1.052l-1.052 1.052z" transform="translate(-166.979 -63.822)" style="fill:#4db26d"/>
    <path data-name="패스 71" d="M233.378 75.905h-1.052v1.052l1.052-1.052z" transform="translate(-166.979 -63.822)" style="fill:#4da48a"/>
    <path data-name="패스 72" d="M232.326 79.468h1.052v1.051l-1.052-1.051z" transform="translate(-166.979 -66.333)" style="fill:#359ea9"/>
    <path data-name="패스 73" d="M233.378 80.519h-1.052v-1.051l1.052 1.051z" transform="translate(-166.979 -66.333)" style="fill:#3690c0"/>
    <path data-name="패스 74" d="M229.817 79.468h-1.051v1.051l1.051-1.051z" transform="translate(-164.47 -66.333)" style="fill:#3595a5"/>
    <path data-name="패스 75" d="M228.767 80.519h1.051v-1.051l-1.051 1.051z" transform="translate(-164.47 -66.333)" style="fill:#4eaace"/>
    <path data-name="패스 76" d="M222.695 84.081h-1.051v-1.052l1.051 1.052z" transform="translate(-159.45 -68.843)" style="fill:#2066ac"/>
    <path data-name="패스 77" d="M221.644 83.029h1.051v1.052l-1.051-1.052z" transform="translate(-159.45 -68.843)" style="fill:#05759f"/>
    <path data-name="패스 78" d="M225.2 84.081h1.052v-1.052l-1.052 1.052z" transform="translate(-161.959 -68.843)" style="fill:#0860a8"/>
    <path data-name="패스 79" d="M226.256 83.029H225.2v1.052l1.052-1.052z" transform="translate(-161.959 -68.843)" style="fill:#0390bf"/>
    <path data-name="패스 80" d="M229.817 84.081h-1.051v-1.052l1.051 1.052z" transform="translate(-164.47 -68.843)" style="fill:#0580b7"/>
    <path data-name="패스 81" d="M228.767 83.029h1.051v1.052l-1.051-1.052z" transform="translate(-164.47 -68.843)" style="fill:#386cb0"/>
    <path data-name="패스 82" d="M233.378 83.029h-1.052v1.052l1.052-1.052z" transform="translate(-166.979 -68.843)" style="fill:#377eb8"/>
    <path data-name="패스 83" d="M219.14 84.081a.183.183 0 0 1-.183-.183.181.181 0 0 1 .054-.129l.739-.739v1.052z" transform="translate(-157.556 -68.843)" style="fill:#0a51a1"/>
    <path data-name="패스 84" d="M240.057 54.537a.183.183 0 0 1 .183.183.186.186 0 0 1-.053.13l-.74.739v-1.052z" transform="translate(-171.998 -48.759)" style="fill:#015221"/>
    <path data-name="패스 85" d="M210.959 43.856h1.051v1.051l-1.051-1.051z" transform="translate(-151.919 -41.23)" style="fill:#d8000d"/>
    <path data-name="패스 86" d="M212.01 44.907h-1.051v-1.051l1.051 1.051z" transform="translate(-151.919 -41.23)" style="fill:#ff1101"/>
    <path data-name="패스 87" d="M208.449 43.856H207.4v1.051l1.051-1.051z" transform="translate(-149.409 -41.23)" style="fill:#cb000d"/>
    <path data-name="패스 88" d="M207.4 44.907h1.051v-1.051l-1.051 1.051z" transform="translate(-149.409 -41.23)" style="fill:#e60001"/>
    <path data-name="패스 89" d="M219.133 44.907h-1.051v-1.051l1.051 1.051z" transform="translate(-156.94 -41.23)" style="fill:#ff1101"/>
    <path data-name="패스 90" d="M215.571 43.856h-1.051v1.051l1.052-1.051z" transform="translate(-154.429 -41.23)" style="fill:#ff1901"/>
    <path data-name="패스 91" d="M214.52 44.907h1.052v-1.051l-1.052 1.051z" transform="translate(-154.429 -41.23)" style="fill:#e4000d"/>
    <path data-name="패스 92" d="M207.4 47.416h1.051v1.051l-1.051-1.051z" transform="translate(-149.409 -43.739)" style="fill:#ff2800"/>
    <path data-name="패스 93" d="M210.959 48.467h1.051v-1.051l-1.051 1.051z" transform="translate(-151.919 -43.739)" style="fill:#ff3301"/>
    <path data-name="패스 94" d="M212.01 47.416h-1.051v1.051l1.051-1.051z" transform="translate(-151.919 -43.739)" style="fill:#e61801"/>
    <path data-name="패스 95" d="M210.959 50.977h1.051v1.051l-1.051-1.051z" transform="translate(-151.919 -46.25)" style="fill:#ff1901"/>
    <path data-name="패스 96" d="M215.571 48.467h-1.051v-1.051l1.052 1.051z" transform="translate(-154.429 -43.739)" style="fill:#ff1101"/>
    <path data-name="패스 97" d="M214.52 47.416h1.052v1.051l-1.052-1.051z" transform="translate(-154.429 -43.739)" style="fill:#fe1a0e"/>
    <path data-name="패스 98" d="M218.082 48.467h1.051v-1.051l-1.051 1.051z" transform="translate(-156.94 -43.739)" style="fill:#fc1a1c"/>
    <path data-name="패스 99" d="M219.133 47.416h-1.051v1.051l1.051-1.051z" transform="translate(-156.94 -43.739)" style="fill:#ff2800"/>
    <path data-name="패스 100" d="M218.082 50.977h1.051v1.051l-1.051-1.051z" transform="translate(-156.94 -46.25)" style="fill:#ff2800"/>
    <path data-name="패스 101" d="M219.133 52.028h-1.051v-1.051l1.051 1.051z" transform="translate(-156.94 -46.25)" style="fill:#ff1901"/>
    <path data-name="패스 102" d="M215.571 50.977h-1.051v1.051l1.052-1.051z" transform="translate(-154.429 -46.25)" style="fill:#fb0026"/>
    <path data-name="패스 103" d="M214.52 52.028h1.052v-1.051l-1.052 1.051z" transform="translate(-154.429 -46.25)" style="fill:#ff4d01"/>
    <path data-name="패스 104" d="M210.959 55.588h1.051v-1.051l-1.051 1.052z" transform="translate(-151.919 -48.759)" style="fill:#ff7300"/>
    <path data-name="패스 105" d="M210.959 58.1h1.051v1.05l-1.051-1.05z" transform="translate(-151.919 -51.27)" style="fill:#ff4d01"/>
    <path data-name="패스 106" d="M212.01 59.15h-1.051V58.1l1.051 1.051z" transform="translate(-151.919 -51.27)" style="fill:#ff8001"/>
    <path data-name="패스 107" d="M207.4 59.15h1.051V58.1l-1.051 1.05z" transform="translate(-149.409 -51.27)" style="fill:#ff6601"/>
    <path data-name="패스 108" d="M215.571 55.588h-1.051v-1.051l1.052 1.052z" transform="translate(-154.429 -48.759)" style="fill:#ff4000"/>
    <path data-name="패스 109" d="M214.52 54.537h1.052v1.052l-1.052-1.052z" transform="translate(-154.429 -48.759)" style="fill:#ff2800"/>
    <path data-name="패스 110" d="M218.082 55.588h1.051v-1.051l-1.051 1.052z" transform="translate(-156.94 -48.759)" style="fill:#ff4d01"/>
    <path data-name="패스 111" d="M219.133 54.537h-1.051v1.052l1.051-1.052z" transform="translate(-156.94 -48.759)" style="fill:#ff3301"/>
    <path data-name="패스 112" d="M218.082 58.1h1.051v1.05l-1.051-1.05z" transform="translate(-156.94 -51.27)" style="fill:#ff6601"/>
    <path data-name="패스 113" d="M219.133 59.15h-1.051V58.1l1.051 1.051z" transform="translate(-156.94 -51.27)" style="fill:#ff8001"/>
    <path data-name="패스 114" d="M215.571 58.1h-1.051v1.05l1.052-1.051z" transform="translate(-154.429 -51.27)" style="fill:#ff5a00"/>
    <path data-name="패스 115" d="M214.52 59.15h1.052V58.1l-1.052 1.05z" transform="translate(-154.429 -51.27)" style="fill:#ff9901"/>
    <path data-name="패스 116" d="M208.449 62.711H207.4V61.66l1.051 1.051z" transform="translate(-149.409 -53.78)" style="fill:#ff6601"/>
    <path data-name="패스 117" d="M207.4 61.66h1.051v1.051L207.4 61.66z" transform="translate(-149.409 -53.78)" style="fill:#ff8001"/>
    <path data-name="패스 118" d="M210.959 62.711h1.051V61.66l-1.051 1.051z" transform="translate(-151.919 -53.78)" style="fill:#ff8001"/>
    <path data-name="패스 119" d="M212.01 61.66h-1.051v1.051l1.051-1.051z" transform="translate(-151.919 -53.78)" style="fill:#ff9901"/>
    <path data-name="패스 120" d="M215.571 62.711h-1.051V61.66l1.052 1.051z" transform="translate(-154.429 -53.78)" style="fill:#ff9901"/>
    <path data-name="패스 121" d="M214.52 61.66h1.052v1.051l-1.052-1.051z" transform="translate(-154.429 -53.78)" style="fill:#ff8001"/>
    <path data-name="패스 122" d="M219.133 61.66h-1.051v1.051l1.051-1.051z" transform="translate(-156.94 -53.78)" style="fill:#ff7300"/>
    <path data-name="패스 123" d="M222.695 48.467h-1.051v-1.051l1.051 1.051z" transform="translate(-159.45 -43.739)" style="fill:#ee0026"/>
    <path data-name="패스 124" d="M226.256 52.028H225.2v-1.051l1.052 1.051z" transform="translate(-161.959 -46.25)" style="fill:#fe1109"/>
    <path data-name="패스 125" d="M222.695 50.977h-1.051v1.051l1.051-1.051z" transform="translate(-159.45 -46.25)" style="fill:#fe1a0e"/>
    <path data-name="패스 126" d="M221.644 52.028h1.051v-1.051l-1.051 1.051z" transform="translate(-159.45 -46.25)" style="fill:#ff3301"/>
    <path data-name="패스 127" d="M222.695 55.588h-1.051v-1.051l1.051 1.052z" transform="translate(-159.45 -48.759)" style="fill:#ff4000"/>
    <path data-name="패스 128" d="M221.644 54.537h1.051v1.052l-1.051-1.052z" transform="translate(-159.45 -48.759)" style="fill:#fb292c"/>
    <path data-name="패스 129" d="M226.256 54.537H225.2v1.052l1.052-1.052z" transform="translate(-161.959 -48.759)" style="fill:#ff3301"/>
    <path data-name="패스 130" d="M222.695 58.1h-1.051v1.05l1.051-1.051z" transform="translate(-159.45 -51.27)" style="fill:#ff4000"/>
    <path data-name="패스 131" d="M204.9 62.712a.184.184 0 0 1-.129-.313l.739-.739v1.052z" transform="translate(-147.519 -53.78)" style="fill:#ff8c00"/>
    <path data-name="패스 132" d="M204.9 43.856a.183.183 0 0 0-.129.312l.739.739v-1.051z" transform="translate(-147.519 -41.23)" style="fill:#b30001"/>
    <path d="M1.58 7.9c0-1.19 1.253-2.154 3.1-2.154s3.1.964 3.1 2.154-1.254 2.154-3.1 2.154-3.1-.97-3.1-2.154zm1.447 0c0 .54.639 1.079 1.649 1.079S6.324 8.435 6.324 7.9s-.636-1.086-1.648-1.086-1.649.541-1.649 1.086zm32.751 1.331a.208.208 0 0 1-.211-.2V.2a.208.208 0 0 1 .211-.2h.954a.207.207 0 0 1 .21.2v8.828a.207.207 0 0 1-.21.2zm-9.855 0a.207.207 0 0 1-.21-.2V5.92h-.764a.308.308 0 0 1-.249-.12 21.92 21.92 0 0 1-2.223-3.071.073.073 0 0 0-.069-.048.077.077 0 0 0-.073.048l-1.527 3.079a.2.2 0 0 1-.184.117h-1.163a.219.219 0 0 1-.215-.211.186.186 0 0 1 .02-.1L21.873.473A.21.21 0 0 1 22.1.345h1.193a.131.131 0 0 1 .126.183l-.342.683a.167.167 0 0 0 .006.2 23.065 23.065 0 0 0 2.629 3.667V.2a.207.207 0 0 1 .21-.2h.95a.206.206 0 0 1 .209.2v1.984a.143.143 0 0 0 .146.141h1.339a.2.2 0 0 1 .21.2v.811a.208.208 0 0 1-.21.2h-1.338a.144.144 0 0 0-.146.142v5.35a.206.206 0 0 1-.209.2zm-9.75 0a.206.206 0 0 1-.209-.2V.2a.207.207 0 0 1 .209-.2h.95a.207.207 0 0 1 .209.2v1.984a.144.144 0 0 0 .146.141h1.339a.2.2 0 0 1 .209.2v.811a.207.207 0 0 1-.209.2h-1.339a.144.144 0 0 0-.146.142v5.35a.207.207 0 0 1-.209.2zm23.848-.016a.207.207 0 0 1-.21-.2V6.281a.207.207 0 0 1 .21-.2h.955a.207.207 0 0 1 .209.2v1.667a.08.08 0 0 0 .081.08h4.242a.207.207 0 0 1 .211.2v.78a.208.208 0 0 1-.211.2zm6.941-.77a.206.206 0 0 1-.21-.2v-.8a.207.207 0 0 1 .21-.2h8.555a.207.207 0 0 1 .21.2v.8a.206.206 0 0 1-.21.2zm-2.4-1.57a.206.206 0 0 1-.21-.2V3.647A.144.144 0 0 0 44.2 3.5h-.8a.149.149 0 0 0-.141.13 2.436 2.436 0 0 1-2.393 1.982A2.522 2.522 0 0 1 38.392 2.9 2.535 2.535 0 0 1 40.865.19a2.447 2.447 0 0 1 2.385 1.965.169.169 0 0 0 .15.137h.8a.143.143 0 0 0 .145-.141V.221a.206.206 0 0 1 .21-.2h.949a.208.208 0 0 1 .211.2v6.45a.208.208 0 0 1-.211.2zM39.766 2.9c0 1.026.491 1.492 1.1 1.492s1.1-.466 1.1-1.492c0-.986-.491-1.493-1.1-1.493s-1.1.504-1.1 1.493zm-10.392.322c0-1.8 1.138-3.046 2.542-3.046s2.541 1.243 2.541 3.046c0 1.831-1.138 3.045-2.541 3.045s-2.542-1.217-2.542-3.048zm1.419 0c0 1.286.5 1.87 1.123 1.87s1.121-.584 1.121-1.87c0-1.236-.5-1.871-1.121-1.871s-1.123.632-1.123 1.868zm-20.926 0c0-1.8 1.138-3.046 2.542-3.046s2.542 1.243 2.542 3.046c0 1.831-1.137 3.045-2.542 3.045S9.867 5.05 9.867 3.219zm1.419 0c0 1.286.5 1.87 1.123 1.87s1.122-.584 1.122-1.87c0-1.236-.5-1.871-1.122-1.871s-1.123.632-1.123 1.868zm36.614 2.7a.21.21 0 0 1-.185-.307l2.8-5.145a.218.218 0 0 1 .233-.129h1.193a.126.126 0 0 1 .118.184l-.366.683a.165.165 0 0 0 0 .2 20.518 20.518 0 0 0 3.124 4.349c.06.06.066.16-.056.164H53.39a.3.3 0 0 1-.247-.122 20.813 20.813 0 0 1-2.109-3.071.075.075 0 0 0-.071-.048.076.076 0 0 0-.07.048l-1.64 3.08a.21.21 0 0 1-.188.116zM.21 5.5A.208.208 0 0 1 0 5.3v-.769a.206.206 0 0 1 .21-.2h3.63a.146.146 0 0 0 .146-.144v-.461a.145.145 0 0 0-.146-.143H1.823a.207.207 0 0 1-.209-.2V.26a.208.208 0 0 1 .209-.2h5.74a.208.208 0 0 1 .21.2v.763a.207.207 0 0 1-.21.2H3.07a.081.081 0 0 0-.082.08v1.025a.081.081 0 0 0 .082.08h4.493a.207.207 0 0 1 .21.2v.767a.207.207 0 0 1-.21.2H5.51a.145.145 0 0 0-.146.143v.457a.146.146 0 0 0 .146.144h3.632a.207.207 0 0 1 .21.2V5.3a.208.208 0 0 1-.21.205z" transform="translate(.5 6.324)" style="stroke:transparent;stroke-miterlimit:10;fill:#222"/>
    <text transform="translate(73.898 16)" style="font-size:19px;font-family:GodoB,Godo B;letter-spacing:-.035em;fill:#222"><tspan x="0" y="0">과학문화사업</tspan></text>
</svg>
