<svg xmlns="http://www.w3.org/2000/svg" width="184.07" height="65.6" viewBox="0 0 184.07 65.6">
    <g data-name="logo ds">
        <path data-name="패스 13" d="M104.85 6.55h-1.64V4.91z" style="fill:#018a45"/>
        <path data-name="패스 14" d="M103.22 4.91h1.64v1.64z" style="fill:#016629"/>
        <path data-name="패스 15" d="M104.85 6.55h-1.64v1.64l1.64-1.64z" style="fill:#017a32"/>
        <path data-name="패스 16" d="M104.85 13.11h-1.64v-1.64z" style="fill:#5ab65a"/>
        <path data-name="패스 17" d="M106.49 14.74h-1.64V13.1z" style="fill:#61ba5a"/>
        <path data-name="패스 18" d="M104.85 13.11h-1.64v1.64z" style="fill:#4d9f56"/>
        <path data-name="패스 19" d="M103.22 14.74h1.64V13.1z" style="fill:#66bf7f"/>
        <path data-name="패스 20" d="M104.85 16.38h-1.64v-1.64l1.64 1.64z" style="fill:#73c8b9"/>
        <path data-name="패스 21" d="M103.22 14.74h1.64v1.64l-1.64-1.64z" style="fill:#4db690"/>
        <path data-name="패스 22" d="M106.49 14.74h-1.64v1.64l1.64-1.64z" style="fill:#4da48a"/>
        <path data-name="패스 23" d="M104.85 16.38h-1.64v1.64z" style="fill:#4db9b4"/>
        <path data-name="패스 24" d="M95.03 9.83h1.64V8.19z" style="fill:#4dad30"/>
        <path data-name="패스 25" d="M95.03 9.83h1.64v1.64z" style="fill:#73be1e"/>
        <path data-name="패스 26" d="M98.3 6.55h1.64V4.91z" style="fill:#1a852d"/>
        <path data-name="패스 27" d="M98.3 6.55h1.64v1.64L98.3 6.55z" style="fill:#40a629"/>
        <path data-name="패스 28" d="M99.94 8.19H98.3V6.55l1.64 1.64z" style="fill:#4dac27"/>
        <path data-name="패스 29" d="M96.66 8.19h1.64V6.55l-1.64 1.64z" style="fill:#1a9432"/>
        <path data-name="패스 30" d="M101.57 6.55h-1.64V4.91z" style="fill:#016d2c"/>
        <path data-name="패스 31" d="M101.57 6.55h-1.64v1.64l1.64-1.64z" style="fill:#279a2f"/>
        <path data-name="패스 32" d="M98.3 9.83h-1.64V8.19l1.64 1.64z" style="fill:#59b224"/>
        <path data-name="패스 33" d="M96.66 8.19h1.64v1.64l-1.64-1.64z" style="fill:#40a83a"/>
        <path data-name="패스 34" d="M99.94 8.19H98.3v1.64l1.64-1.64z" style="fill:#4dad38"/>
        <path data-name="패스 35" d="M98.3 9.83h-1.64v1.64z" style="fill:#4dad38"/>
        <path data-name="패스 36" d="M99.94 4.91h1.63v1.64l-1.64-1.64z" style="fill:#1a9432"/>
        <path data-name="패스 37" d="M101.58 6.55h1.64V4.91z" style="fill:#4dac27"/>
        <path data-name="패스 38" d="M103.22 4.91h-1.64v1.64z" style="fill:#017a32"/>
        <path data-name="패스 39" d="M101.58 6.55h1.64v1.64l-1.64-1.64z" style="fill:#1a873c"/>
        <path data-name="패스 40" d="M103.22 8.19h-1.64V6.55l1.64 1.64z" style="fill:#1a9432"/>
        <path data-name="패스 41" d="M99.94 8.19h1.63V6.55l-1.64 1.64z" style="fill:#4dad38"/>
        <path data-name="패스 42" d="M98.3 9.83h1.64V8.19z" style="fill:#66b823"/>
        <path data-name="패스 43" d="M98.3 9.83h1.64v1.64z" style="fill:#66b934"/>
        <path data-name="패스 44" d="M99.94 11.47H98.3V9.83l1.64 1.64z" style="fill:#7ac11f"/>
        <path data-name="패스 45" d="M96.66 11.47h1.64V9.83z" style="fill:#8cc919"/>
        <path data-name="패스 46" d="M101.57 9.83h-1.64V8.19z" style="fill:#80c52f"/>
        <path data-name="패스 47" d="M99.94 8.19h1.63v1.64l-1.64-1.64z" style="fill:#40a629"/>
        <path data-name="패스 48" d="M103.22 8.19h-1.64v1.64l1.64-1.64z" style="fill:#55b13c"/>
        <path data-name="패스 49" d="M103.22 11.47h-1.64V9.83z" style="fill:#73be1e"/>
        <path data-name="패스 50" d="M101.57 9.83h-1.64v1.64z" style="fill:#4dad30"/>
        <path data-name="패스 51" d="M99.94 11.47h1.63V9.83l-1.64 1.64z" style="fill:#8cc919"/>
        <path data-name="패스 52" d="M96.66 11.47h1.64v1.64z" style="fill:#73be1e"/>
        <path data-name="패스 53" d="M98.3 13.11h1.64v-1.64z" style="fill:#73c258"/>
        <path data-name="패스 54" d="M99.94 11.47H98.3v1.64l1.64-1.64z" style="fill:#5ab336"/>
        <path data-name="패스 55" d="M98.3 13.11h1.64v1.64z" style="fill:#5ab65a"/>
        <path data-name="패스 56" d="M101.57 13.11h-1.64v-1.64z" style="fill:#4dad38"/>
        <path data-name="패스 57" d="M99.94 11.47h1.63v1.64l-1.64-1.64z" style="fill:#73c045"/>
        <path data-name="패스 58" d="M101.58 13.11h1.64v-1.64z" style="fill:#66ba47"/>
        <path data-name="패스 59" d="M103.22 11.47h-1.64v1.64z" style="fill:#80c52f"/>
        <path data-name="패스 60" d="M101.58 13.11h1.64v1.64z" style="fill:#5abb91"/>
        <path data-name="패스 61" d="M103.22 14.74h-1.64V13.1z" style="fill:#73c045"/>
        <path data-name="패스 62" d="M101.57 13.11h-1.64v1.64z" style="fill:#5ab548"/>
        <path data-name="패스 63" d="M99.94 14.74h1.63V13.1l-1.64 1.64z" style="fill:#80cb93"/>
        <path data-name="패스 64" d="M98.3 16.38h1.64v-1.64z" style="fill:#4299a6"/>
        <path data-name="패스 65" d="M98.3 16.38h1.64v1.64z" style="fill:#35a1c9"/>
        <path data-name="패스 66" d="M99.94 18.02H98.3v-1.64l1.64 1.64z" style="fill:#3787bc"/>
        <path data-name="패스 67" d="M96.66 18.02h1.64v-1.64z" style="fill:#4eaace"/>
        <path data-name="패스 68" d="M101.57 16.38h-1.64v-1.64l1.64 1.64z" style="fill:#4db9b4"/>
        <path data-name="패스 69" d="M99.94 14.74h1.63v1.64l-1.64-1.64z" style="fill:#5abb91"/>
        <path data-name="패스 70" d="M101.58 16.38h1.64v-1.64l-1.64 1.64z" style="fill:#4db26d"/>
        <path data-name="패스 71" d="M103.22 14.74h-1.64v1.64l1.64-1.64z" style="fill:#4da48a"/>
        <path data-name="패스 72" d="M101.58 16.38h1.64v1.64z" style="fill:#359ea9"/>
        <path data-name="패스 73" d="M103.22 18.02h-1.64v-1.64z" style="fill:#3690c0"/>
        <path data-name="패스 74" d="M101.57 16.38h-1.64v1.64z" style="fill:#3595a5"/>
        <path data-name="패스 75" d="M99.94 18.02h1.63v-1.64l-1.64 1.64z" style="fill:#4eaace"/>
        <path data-name="패스 76" d="M98.3 19.66h-1.64v-1.64l1.64 1.64z" style="fill:#2066ac"/>
        <path data-name="패스 77" d="M96.66 18.02h1.64v1.64z" style="fill:#05759f"/>
        <path data-name="패스 78" d="M98.3 19.66h1.64v-1.64z" style="fill:#0860a8"/>
        <path data-name="패스 79" d="M99.94 18.02H98.3v1.64l1.64-1.64z" style="fill:#0390bf"/>
        <path data-name="패스 80" d="M101.57 19.66h-1.64v-1.64l1.64 1.64z" style="fill:#0580b7"/>
        <path data-name="패스 81" d="M99.94 18.02h1.63v1.64l-1.64-1.64z" style="fill:#386cb0"/>
        <path data-name="패스 82" d="M103.22 18.02h-1.64v1.64z" style="fill:#377eb8"/>
        <path data-name="패스 83" d="M95.71 19.66a.29.29 0 0 1-.29-.29.279.279 0 0 1 .08-.2l1.15-1.15v1.64h-.95z" style="fill:#0a51a1"/>
        <path data-name="패스 84" d="M105.81 4.91a.288.288 0 0 1 .29.28.3.3 0 0 1-.08.2l-1.15 1.15V4.9h.95z" style="fill:#015221"/>
        <path data-name="패스 85" d="M91.75 0h1.64v1.64L91.75 0z" style="fill:#d8000d"/>
        <path data-name="패스 86" d="M93.39 1.64h-1.64V0z" style="fill:#ff1101"/>
        <path data-name="패스 87" d="M91.75 0h-1.64v1.64L91.75 0z" style="fill:#cb000d"/>
        <path data-name="패스 88" d="M90.12 1.64h1.64V0z" style="fill:#e60001"/>
        <path data-name="패스 89" d="M96.66 1.64h-1.64V0z" style="fill:#ff1101"/>
        <path data-name="패스 90" d="M95.03 0h-1.64v1.64z" style="fill:#ff1901"/>
        <path data-name="패스 91" d="M93.39 1.64h1.64V0z" style="fill:#e4000d"/>
        <path data-name="패스 92" d="M90.12 1.64h1.64v1.64z" style="fill:#ff2800"/>
        <path data-name="패스 93" d="M91.75 3.28h1.64V1.64l-1.64 1.64z" style="fill:#ff3301"/>
        <path data-name="패스 94" d="M93.39 1.64h-1.64v1.64z" style="fill:#e61801"/>
        <path data-name="패스 95" d="M91.75 3.28h1.64v1.64l-1.64-1.64z" style="fill:#ff1901"/>
        <path data-name="패스 96" d="M95.03 3.28h-1.64V1.64z" style="fill:#ff1101"/>
        <path data-name="패스 97" d="M93.39 1.64h1.64v1.64z" style="fill:#fe1a0e"/>
        <path data-name="패스 98" d="M95.03 3.28h1.64V1.64z" style="fill:#fc1a1c"/>
        <path data-name="패스 99" d="M96.66 1.64h-1.64v1.64z" style="fill:#ff2800"/>
        <path data-name="패스 100" d="M95.03 3.28h1.64v1.64l-1.64-1.64z" style="fill:#ff2800"/>
        <path data-name="패스 101" d="M96.66 4.91h-1.64V3.27z" style="fill:#ff1901"/>
        <path data-name="패스 102" d="M95.03 3.28h-1.64v1.64l1.64-1.64z" style="fill:#fb0026"/>
        <path data-name="패스 103" d="M93.39 4.91h1.64V3.27z" style="fill:#ff4d01"/>
        <path data-name="패스 104" d="M91.75 6.55h1.64V4.91l-1.64 1.64z" style="fill:#ff7300"/>
        <path data-name="패스 105" d="M91.75 6.55h1.64v1.64l-1.64-1.64z" style="fill:#ff4d01"/>
        <path data-name="패스 106" d="M93.39 8.19h-1.64V6.55l1.64 1.64z" style="fill:#ff8001"/>
        <path data-name="패스 107" d="M90.12 8.19h1.64V6.55z" style="fill:#ff6601"/>
        <path data-name="패스 108" d="M95.03 6.55h-1.64V4.91z" style="fill:#ff4000"/>
        <path data-name="패스 109" d="M93.39 4.91h1.64v1.64z" style="fill:#ff2800"/>
        <path data-name="패스 110" d="M95.03 6.55h1.64V4.91z" style="fill:#ff4d01"/>
        <path data-name="패스 111" d="M96.66 4.91h-1.64v1.64z" style="fill:#ff3301"/>
        <path data-name="패스 112" d="M95.03 6.55h1.64v1.64l-1.64-1.64z" style="fill:#ff6601"/>
        <path data-name="패스 113" d="M96.66 8.19h-1.64V6.55l1.64 1.64z" style="fill:#ff8001"/>
        <path data-name="패스 114" d="M95.03 6.55h-1.64v1.64l1.64-1.64z" style="fill:#ff5a00"/>
        <path data-name="패스 115" d="M93.39 8.19h1.64V6.55l-1.64 1.64z" style="fill:#ff9901"/>
        <path data-name="패스 116" d="M91.75 9.83h-1.64V8.19l1.64 1.64z" style="fill:#ff6601"/>
        <path data-name="패스 117" d="M90.12 8.19h1.64v1.64z" style="fill:#ff8001"/>
        <path data-name="패스 118" d="M91.75 9.83h1.64V8.19z" style="fill:#ff8001"/>
        <path data-name="패스 119" d="M93.39 8.19h-1.64v1.64z" style="fill:#ff9901"/>
        <path data-name="패스 120" d="M95.03 9.83h-1.64V8.19l1.64 1.64z" style="fill:#ff9901"/>
        <path data-name="패스 121" d="M93.39 8.19h1.64v1.64z" style="fill:#ff8001"/>
        <path data-name="패스 122" d="M96.66 8.19h-1.64v1.64l1.64-1.64z" style="fill:#ff7300"/>
        <path data-name="패스 123" d="M98.3 3.28h-1.64V1.64z" style="fill:#ee0026"/>
        <path data-name="패스 124" d="M99.94 4.91H98.3V3.27l1.64 1.64z" style="fill:#fe1109"/>
        <path data-name="패스 125" d="M98.3 3.28h-1.64v1.64l1.64-1.64z" style="fill:#fe1a0e"/>
        <path data-name="패스 126" d="M96.66 4.91h1.64V3.27z" style="fill:#ff3301"/>
        <path data-name="패스 127" d="M98.3 6.55h-1.64V4.91z" style="fill:#ff4000"/>
        <path data-name="패스 128" d="M96.66 4.91h1.64v1.64z" style="fill:#fb292c"/>
        <path data-name="패스 129" d="M99.94 4.91H98.3v1.64l1.64-1.64z" style="fill:#ff3301"/>
        <path data-name="패스 130" d="M98.3 6.55h-1.64v1.64l1.64-1.64z" style="fill:#ff4000"/>
        <path data-name="패스 131" d="M89.16 9.83a.282.282 0 0 1-.28-.29.318.318 0 0 1 .08-.2l1.15-1.15v1.64h-.95z" style="fill:#ff8c00"/>
        <path data-name="패스 132" d="M89.16 0a.282.282 0 0 0-.28.29.318.318 0 0 0 .08.2l1.15 1.15V0h-.95z" style="fill:#b30001"/>
        <path d="M2.95 18.07c0-1.85 1.95-3.36 4.82-3.36s4.82 1.5 4.82 3.36-1.95 3.36-4.82 3.36-4.82-1.5-4.82-3.36zm2.26 0c0 .84 1 1.68 2.57 1.68s2.57-.84 2.57-1.68-.99-1.68-2.57-1.68-2.57.84-2.57 1.68zm51.03 2.08a.324.324 0 0 1-.33-.32V6.09a.324.324 0 0 1 .33-.32h1.49a.331.331 0 0 1 .33.32v13.75a.324.324 0 0 1-.33.32h-1.49zm-15.35 0a.331.331 0 0 1-.33-.32v-4.84h-1.19a.493.493 0 0 1-.39-.19 33.8 33.8 0 0 1-3.46-4.78.121.121 0 0 0-.22 0l-2.38 4.8a.312.312 0 0 1-.29.18h-1.81a.349.349 0 0 1-.34-.33.27.27 0 0 1 .03-.15l4.06-8.02a.342.342 0 0 1 .36-.2h1.86a.2.2 0 0 1 .22.18.215.215 0 0 1-.02.11l-.53 1.07a.289.289 0 0 0 0 .31 36.048 36.048 0 0 0 4.1 5.71V6.09a.316.316 0 0 1 .32-.32h1.48a.316.316 0 0 1 .32.32v3.08a.224.224 0 0 0 .23.22H45a.322.322 0 0 1 .33.31v1.27a.324.324 0 0 1-.33.32h-2.09a.231.231 0 0 0-.23.22v8.33a.322.322 0 0 1-.32.32h-1.48zm-15.19 0a.331.331 0 0 1-.33-.32V6.09a.324.324 0 0 1 .33-.32h1.48a.316.316 0 0 1 .32.32v3.08a.224.224 0 0 0 .23.22h2.09a.308.308 0 0 1 .32.31v1.27a.324.324 0 0 1-.33.32h-2.08a.224.224 0 0 0-.23.22v8.33a.324.324 0 0 1-.33.32h-1.48zm37.15-.02a.331.331 0 0 1-.33-.32v-4.25a.324.324 0 0 1 .33-.32h1.49a.331.331 0 0 1 .33.32v2.6a.124.124 0 0 0 .13.12h6.61a.331.331 0 0 1 .33.32v1.22a.324.324 0 0 1-.33.32h-8.55zm10.81-1.2a.329.329 0 0 1-.33-.31v-1.25a.324.324 0 0 1 .33-.32h13.33a.331.331 0 0 1 .33.32v1.25a.322.322 0 0 1-.32.32H73.67zm-3.75-2.44a.329.329 0 0 1-.33-.31v-4.71a.224.224 0 0 0-.23-.22H68.1a.234.234 0 0 0-.22.2 3.8 3.8 0 0 1-3.73 3.09 3.923 3.923 0 0 1-3.86-3.99 1.927 1.927 0 0 1 .01-.24 3.951 3.951 0 0 1 3.67-4.21h.18a3.819 3.819 0 0 1 3.72 3.06.254.254 0 0 0 .23.21h1.25a.238.238 0 0 0 .23-.22v-3a.322.322 0 0 1 .32-.32h1.48a.324.324 0 0 1 .33.32V16.2a.324.324 0 0 1-.33.32H69.9zm-7.47-6.21c0 1.6.77 2.32 1.71 2.32s1.71-.72 1.71-2.32-.77-2.33-1.71-2.33-1.71.79-1.71 2.33zm-16.19.5c0-2.81 1.77-4.75 3.96-4.75s3.96 1.94 3.96 4.75-1.77 4.74-3.96 4.74-3.96-1.89-3.96-4.74zm2.21 0c0 2 .78 2.91 1.75 2.91s1.75-.91 1.75-2.91-.78-2.91-1.75-2.91-1.75.99-1.75 2.92zm-32.6 0c0-2.81 1.77-4.75 3.96-4.75s3.96 1.94 3.96 4.75-1.77 4.74-3.96 4.74-3.96-1.89-3.96-4.74zm2.21 0c0 2 .78 2.91 1.75 2.91s1.75-.91 1.75-2.91-.78-2.91-1.75-2.91-1.75.99-1.75 2.92zm57.04 4.21a.318.318 0 0 1-.32-.33.282.282 0 0 1 .04-.15l4.36-8.02a.342.342 0 0 1 .36-.2h1.86a.2.2 0 0 1 .2.2.149.149 0 0 1-.02.09l-.57 1.06a.255.255 0 0 0 0 .31 32.165 32.165 0 0 0 4.86 6.78c.09.09.1.25-.09.26h-2.13a.493.493 0 0 1-.39-.19 31.14 31.14 0 0 1-3.28-4.78.1.1 0 0 0-.11-.07.123.123 0 0 0-.11.07l-2.56 4.8a.334.334 0 0 1-.29.18h-1.81zM.82 14.35a.324.324 0 0 1-.33-.32v-1.2a.322.322 0 0 1 .32-.32h5.66a.231.231 0 0 0 .23-.22v-.71a.224.224 0 0 0-.23-.22H3.33a.331.331 0 0 1-.33-.32V6.18a.324.324 0 0 1 .33-.32h8.94a.331.331 0 0 1 .33.32v1.19a.324.324 0 0 1-.33.32h-7a.124.124 0 0 0-.13.12V9.4a.118.118 0 0 0 .13.12h7a.331.331 0 0 1 .33.32v1.2a.324.324 0 0 1-.33.32h-3.2a.231.231 0 0 0-.23.22v.71a.224.224 0 0 0 .23.22h5.66a.331.331 0 0 1 .33.32v1.2a.324.324 0 0 1-.33.32H.82z" style="fill:#fff"/>
    </g>
    <path data-name="패스 389" d="M19.25 55.03c.94 0 1.08.73 1.08 2.06s-.14 2.03-1.08 2.03H0v-4.1h5.15v-8.96h4.66v8.96h9.45zm-6.09-5.36v-8.96c0-.63-.28-.77-.77-.77H1.71v-4.1h11.84a5.21 5.21 0 0 1 2.98 1.61A4.651 4.651 0 0 1 18 39.97v9.7c0 .8-.88 1.01-2.45 1.01-1.47 0-2.38-.21-2.38-1.01zm8.4-16.24h4.83V44h5.29v4.2h-5.29v14.14c0 .8-.88 1.01-2.45 1.01-1.47 0-2.38-.17-2.38-.98V33.42z" style="fill:#fff"/>
    <path data-name="패스 390" d="M49.63 35.43c.81 0 .95.6.95 1.89s-.14 1.96-.95 1.96H32.02v-3.85h6.72v-2.94h4.8v2.94zm-8.44 4.97c4.34 0 7.46 2.59 7.46 6.06s-3.12 6.06-7.46 6.06-7.46-2.59-7.46-6.06 3.12-6.06 7.46-6.06zM52.6 58.25H36.43v-3.96h19.11c1.19 0 1.82.53 1.82 2v8.33c0 .95-1.08.98-2.38.98-1.47 0-2.38-.14-2.38-.98v-6.37zM41.19 44.18c-1.86 0-2.84.95-2.84 2.24 0 1.37.98 2.31 2.84 2.31s2.83-.95 2.83-2.31c0-1.29-.98-2.24-2.83-2.24zm11.76-11.1h4.76v7.7H63v4.03h-5.29v6.93c0 .91-1.09 1.05-2.38 1.05-1.5 0-2.38-.25-2.38-1.05z" style="fill:#fff"/>
    <path data-name="패스 391" d="M81.17 56.75c0 .77-.88.98-2.45.98-1.47 0-2.38-.18-2.38-.98v-4.8H63.18v-3.82h28.98c.95 0 1.08.6 1.08 1.93s-.14 1.89-1.08 1.89H81.17v4.8zm-9.87 8.23a4.361 4.361 0 0 1-2.55-1.5 4.232 4.232 0 0 1-1.37-2.28v-6.37h4.76v5.29c0 .63.28.91.8.91h15.19c.77 0 .91.8.91 2 0 1.29-.14 1.96-.91 1.96H71.29zm-3.78-31.57h21.04v9.35c0 1.64-.8 2.62-2.49 2.62H71.79a5.2 5.2 0 0 1-2.87-1.75 4.194 4.194 0 0 1-1.4-2.38v-7.84zm16.31 8.16v-4.34H72.24v3.75c0 .49.17.6.56.6h11.03z" style="fill:#fff"/>
    <path data-name="패스 392" d="M113.23 56.08c.95 0 1.08.74 1.08 2.07s-.14 2.03-1.08 2.03H93.98v-4.1h7.6v-2.52c-3.33-.77-5.46-3.22-5.46-6.27 0-3.67 3.15-6.55 7.77-6.55s7.77 2.87 7.77 6.55c0 3.01-2.13 5.46-5.43 6.27v2.52h7zM94.78 39.73v-3.89h6.76v-3.01h4.66v3.01h5.88c.95 0 1.08.63 1.08 1.96s-.14 1.92-1.08 1.92H94.79zm9.1 4.83c-2 0-3.12 1.16-3.12 2.73a3.168 3.168 0 0 0 6.24 0c0-1.57-1.12-2.73-3.12-2.73zm11.66-11.13h4.83V44h5.29v4.2h-5.29v14.14c0 .8-.88 1.01-2.45 1.01-1.47 0-2.38-.17-2.38-.98V33.42z" style="fill:#fff"/>
    <path data-name="패스 393" d="M135.45 48.24a26.488 26.488 0 0 1-6.86 8.3c-.7.53-1.4.17-2.42-.91-.88-.91-1.4-1.65-.74-2.28 3.64-3.29 7.25-7.81 7.25-12.46V35.5h4.97v5.32c0 4.59 3.82 9.21 6.9 12.11.7.63.32 1.16-.7 2.24-.91.95-1.5 1.51-2.21.91a26.159 26.159 0 0 1-6.2-7.84zm11.41-14.81h4.83v9.87h5.29v4.1h-5.29v14.95c0 .8-.88 1.01-2.45 1.01-1.47 0-2.38-.17-2.38-.98V33.43z" style="fill:#fff"/>
    <path data-name="패스 394" d="M184.07 48.56c0 .84-.91 1.08-2.38 1.08s-2.38-.25-2.38-1.08v-5.85h-5.81c-.77 3.64-4.1 6.2-8.3 6.2-4.76 0-8.44-3.33-8.44-7.81s3.68-7.91 8.44-7.91a8.236 8.236 0 0 1 8.09 5.5h6.02v-5.6h4.76v15.47zM165.2 37.18a3.724 3.724 0 0 0-3.82 3.92 3.835 3.835 0 0 0 7.67 0 3.731 3.731 0 0 0-3.85-3.92zm2.31 28.14a4.5 4.5 0 0 1-2.8-1.58 4.354 4.354 0 0 1-1.47-2.42V51.31h4.73v3.19h10.99v-3.19h4.73v11.45a2.268 2.268 0 0 1-2.52 2.56h-13.65zm11.45-3.96v-2.97h-10.99v2.45c0 .35.17.52.46.52h10.54z" style="fill:#fff"/>
</svg>
