<svg xmlns="http://www.w3.org/2000/svg" width="189" height="69.443" viewBox="0 0 189 69.443">
    <g data-name="logo_ds_w">
        <path data-name="패스 13" d="M237.525 56.175h-1.637v-1.638l1.637 1.638z" transform="translate(-131.973 -49.623)" style="fill:#018a45"/>
        <path data-name="패스 14" d="M235.889 54.537h1.637v1.638l-1.637-1.638z" transform="translate(-131.973 -49.623)" style="fill:#016629"/>
        <path data-name="패스 15" d="M237.525 58.1h-1.637v1.638l1.637-1.638z" transform="translate(-131.973 -51.547)" style="fill:#017a32"/>
        <path data-name="패스 16" d="M237.525 70.421h-1.637v-1.638l1.637 1.638z" transform="translate(-131.973 -57.315)" style="fill:#5ab65a"/>
        <path data-name="패스 17" d="M241.085 73.982h-1.637v-1.637l1.637 1.637z" transform="translate(-133.895 -59.238)" style="fill:#61ba5a"/>
        <path data-name="패스 18" d="M237.525 72.345h-1.637v1.637l1.637-1.637z" transform="translate(-131.973 -59.238)" style="fill:#4d9f56"/>
        <path data-name="패스 19" d="M235.889 73.982h1.637v-1.637l-1.637 1.637z" transform="translate(-131.973 -59.238)" style="fill:#66bf7f"/>
        <path data-name="패스 20" d="M237.525 77.544h-1.637v-1.639l1.637 1.638z" transform="translate(-131.973 -61.161)" style="fill:#73c8b9"/>
        <path data-name="패스 21" d="M235.889 75.905h1.637v1.638l-1.637-1.638z" transform="translate(-131.973 -61.161)" style="fill:#4db690"/>
        <path data-name="패스 22" d="M241.085 75.905h-1.637v1.638l1.637-1.638z" transform="translate(-133.895 -61.161)" style="fill:#4da48a"/>
        <path data-name="패스 23" d="M237.525 79.468h-1.637v1.638l1.637-1.638z" transform="translate(-131.973 -63.084)" style="fill:#4db9b4"/>
        <path data-name="패스 24" d="M218.082 63.3h1.637v-1.64l-1.637 1.64z" transform="translate(-122.355 -53.469)" style="fill:#4dad30"/>
        <path data-name="패스 25" d="M218.082 65.221h1.637v1.638l-1.637-1.638z" transform="translate(-122.355 -55.392)" style="fill:#73be1e"/>
        <path data-name="패스 26" d="M225.2 56.175h1.638v-1.638l-1.638 1.638z" transform="translate(-126.202 -49.623)" style="fill:#1a852d"/>
        <path data-name="패스 27" d="M225.2 58.1h1.638v1.638L225.2 58.1z" transform="translate(-126.202 -51.547)" style="fill:#40a629"/>
        <path data-name="패스 28" d="M226.843 59.737H225.2V58.1l1.638 1.638z" transform="translate(-126.202 -51.547)" style="fill:#4dac27"/>
        <path data-name="패스 29" d="M221.644 59.737h1.637V58.1l-1.637 1.638z" transform="translate(-124.279 -51.547)" style="fill:#1a9432"/>
        <path data-name="패스 30" d="M230.4 56.175h-1.637v-1.638l1.637 1.638z" transform="translate(-128.126 -49.623)" style="fill:#016d2c"/>
        <path data-name="패스 31" d="M230.4 58.1h-1.637v1.638L230.4 58.1z" transform="translate(-128.126 -51.547)" style="fill:#279a2f"/>
        <path data-name="패스 32" d="M223.281 63.3h-1.637v-1.64l1.637 1.638z" transform="translate(-124.279 -53.469)" style="fill:#59b224"/>
        <path data-name="패스 33" d="M221.644 61.66h1.637v1.64l-1.637-1.638z" transform="translate(-124.279 -53.469)" style="fill:#40a83a"/>
        <path data-name="패스 34" d="M226.843 61.66H225.2v1.64l1.638-1.638z" transform="translate(-126.202 -53.469)" style="fill:#4dad38"/>
        <path data-name="패스 35" d="M223.281 65.221h-1.637v1.638l1.637-1.638z" transform="translate(-124.279 -55.392)" style="fill:#4dad38"/>
        <path data-name="패스 36" d="M228.767 54.537h1.633v1.638l-1.637-1.638z" transform="translate(-128.126 -49.623)" style="fill:#1a9432"/>
        <path data-name="패스 37" d="M232.326 56.175h1.638v-1.638l-1.638 1.638z" transform="translate(-130.048 -49.623)" style="fill:#4dac27"/>
        <path data-name="패스 38" d="M233.965 54.537h-1.638v1.638l1.638-1.638z" transform="translate(-130.048 -49.623)" style="fill:#017a32"/>
        <path data-name="패스 39" d="M232.326 58.1h1.638v1.638l-1.638-1.638z" transform="translate(-130.048 -51.547)" style="fill:#1a873c"/>
        <path data-name="패스 40" d="M233.965 59.737h-1.638V58.1l1.638 1.638z" transform="translate(-130.048 -51.547)" style="fill:#1a9432"/>
        <path data-name="패스 41" d="M228.767 59.737h1.633V58.1l-1.637 1.638z" transform="translate(-128.126 -51.547)" style="fill:#4dad38"/>
        <path data-name="패스 42" d="M225.2 63.3h1.638v-1.64L225.2 63.3z" transform="translate(-126.202 -53.469)" style="fill:#66b823"/>
        <path data-name="패스 43" d="M225.2 65.221h1.638v1.638l-1.638-1.638z" transform="translate(-126.202 -55.392)" style="fill:#66b934"/>
        <path data-name="패스 44" d="M226.843 66.859H225.2v-1.638l1.638 1.638z" transform="translate(-126.202 -55.392)" style="fill:#7ac11f"/>
        <path data-name="패스 45" d="M221.644 66.859h1.637v-1.638l-1.637 1.638z" transform="translate(-124.279 -55.392)" style="fill:#8cc919"/>
        <path data-name="패스 46" d="M230.4 63.3h-1.637v-1.64l1.637 1.64z" transform="translate(-128.126 -53.469)" style="fill:#80c52f"/>
        <path data-name="패스 47" d="M228.767 61.66h1.633v1.64l-1.637-1.638z" transform="translate(-128.126 -53.469)" style="fill:#40a629"/>
        <path data-name="패스 48" d="M233.965 61.66h-1.638v1.64l1.638-1.638z" transform="translate(-130.048 -53.469)" style="fill:#55b13c"/>
        <path data-name="패스 49" d="M233.965 66.859h-1.638v-1.638l1.638 1.638z" transform="translate(-130.048 -55.392)" style="fill:#73be1e"/>
        <path data-name="패스 50" d="M230.4 65.221h-1.637v1.638l1.637-1.638z" transform="translate(-128.126 -55.392)" style="fill:#4dad30"/>
        <path data-name="패스 51" d="M228.767 66.859h1.633v-1.638l-1.637 1.638z" transform="translate(-128.126 -55.392)" style="fill:#8cc919"/>
        <path data-name="패스 52" d="M221.644 68.783h1.637v1.638l-1.637-1.638z" transform="translate(-124.279 -57.315)" style="fill:#73be1e"/>
        <path data-name="패스 53" d="M225.2 70.421h1.638v-1.638l-1.638 1.638z" transform="translate(-126.202 -57.315)" style="fill:#73c258"/>
        <path data-name="패스 54" d="M226.843 68.783H225.2v1.638l1.638-1.638z" transform="translate(-126.202 -57.315)" style="fill:#5ab336"/>
        <path data-name="패스 55" d="M225.2 72.345h1.638v1.637l-1.638-1.637z" transform="translate(-126.202 -59.238)" style="fill:#5ab65a"/>
        <path data-name="패스 56" d="M230.4 70.421h-1.637v-1.638l1.637 1.638z" transform="translate(-128.126 -57.315)" style="fill:#4dad38"/>
        <path data-name="패스 57" d="M228.767 68.783h1.633v1.638l-1.637-1.638z" transform="translate(-128.126 -57.315)" style="fill:#73c045"/>
        <path data-name="패스 58" d="M232.326 70.421h1.638v-1.638l-1.638 1.638z" transform="translate(-130.048 -57.315)" style="fill:#66ba47"/>
        <path data-name="패스 59" d="M233.965 68.783h-1.638v1.638l1.638-1.638z" transform="translate(-130.048 -57.315)" style="fill:#80c52f"/>
        <path data-name="패스 60" d="M232.326 72.345h1.638v1.637l-1.638-1.637z" transform="translate(-130.048 -59.238)" style="fill:#5abb91"/>
        <path data-name="패스 61" d="M233.965 73.982h-1.638v-1.637l1.638 1.637z" transform="translate(-130.048 -59.238)" style="fill:#73c045"/>
        <path data-name="패스 62" d="M230.4 72.345h-1.637v1.637l1.637-1.637z" transform="translate(-128.126 -59.238)" style="fill:#5ab548"/>
        <path data-name="패스 63" d="M228.767 73.982h1.633v-1.637l-1.637 1.637z" transform="translate(-128.126 -59.238)" style="fill:#80cb93"/>
        <path data-name="패스 64" d="M225.2 77.544h1.638v-1.639l-1.638 1.639z" transform="translate(-126.202 -61.161)" style="fill:#4299a6"/>
        <path data-name="패스 65" d="M225.2 79.468h1.638v1.638l-1.638-1.638z" transform="translate(-126.202 -63.084)" style="fill:#35a1c9"/>
        <path data-name="패스 66" d="M226.843 81.106H225.2v-1.638l1.638 1.638z" transform="translate(-126.202 -63.084)" style="fill:#3787bc"/>
        <path data-name="패스 67" d="M221.644 81.106h1.637v-1.638l-1.637 1.638z" transform="translate(-124.279 -63.084)" style="fill:#4eaace"/>
        <path data-name="패스 68" d="M230.4 77.544h-1.637v-1.639l1.637 1.638z" transform="translate(-128.126 -61.161)" style="fill:#4db9b4"/>
        <path data-name="패스 69" d="M228.767 75.905h1.633v1.638l-1.637-1.638z" transform="translate(-128.126 -61.161)" style="fill:#5abb91"/>
        <path data-name="패스 70" d="M232.326 77.544h1.638v-1.639l-1.638 1.638z" transform="translate(-130.048 -61.161)" style="fill:#4db26d"/>
        <path data-name="패스 71" d="M233.965 75.905h-1.638v1.638l1.638-1.638z" transform="translate(-130.048 -61.161)" style="fill:#4da48a"/>
        <path data-name="패스 72" d="M232.326 79.468h1.638v1.638l-1.638-1.638z" transform="translate(-130.048 -63.084)" style="fill:#359ea9"/>
        <path data-name="패스 73" d="M233.965 81.106h-1.638v-1.638l1.638 1.638z" transform="translate(-130.048 -63.084)" style="fill:#3690c0"/>
        <path data-name="패스 74" d="M230.4 79.468h-1.637v1.638l1.637-1.638z" transform="translate(-128.126 -63.084)" style="fill:#3595a5"/>
        <path data-name="패스 75" d="M228.767 81.106h1.633v-1.638l-1.637 1.638z" transform="translate(-128.126 -63.084)" style="fill:#4eaace"/>
        <path data-name="패스 76" d="M223.281 84.668h-1.637v-1.639l1.637 1.638z" transform="translate(-124.279 -65.008)" style="fill:#2066ac"/>
        <path data-name="패스 77" d="M221.644 83.029h1.637v1.638l-1.637-1.638z" transform="translate(-124.279 -65.008)" style="fill:#05759f"/>
        <path data-name="패스 78" d="M225.2 84.668h1.638v-1.639l-1.638 1.639z" transform="translate(-126.202 -65.008)" style="fill:#0860a8"/>
        <path data-name="패스 79" d="M226.843 83.029H225.2v1.638l1.638-1.638z" transform="translate(-126.202 -65.008)" style="fill:#0390bf"/>
        <path data-name="패스 80" d="M230.4 84.668h-1.637v-1.639l1.637 1.638z" transform="translate(-128.126 -65.008)" style="fill:#0580b7"/>
        <path data-name="패스 81" d="M228.767 83.029h1.633v1.638l-1.637-1.638z" transform="translate(-128.126 -65.008)" style="fill:#386cb0"/>
        <path data-name="패스 82" d="M233.965 83.029h-1.638v1.638l1.638-1.638z" transform="translate(-130.048 -65.008)" style="fill:#377eb8"/>
        <path data-name="패스 83" d="M219.242 84.668a.286.286 0 0 1-.285-.286.282.282 0 0 1 .084-.2l1.151-1.152v1.639z" transform="translate(-122.828 -65.007)" style="fill:#0a51a1"/>
        <path data-name="패스 84" d="M240.4 54.537a.285.285 0 0 1 .285.285.29.29 0 0 1-.082.2l-1.152 1.151v-1.636z" transform="translate(-133.894 -49.623)" style="fill:#015221"/>
        <path data-name="패스 85" d="M210.959 43.856h1.641v1.638l-1.637-1.638z" transform="translate(-118.508 -43.856)" style="fill:#d8000d"/>
        <path data-name="패스 86" d="M212.6 45.494h-1.637v-1.638l1.637 1.638z" transform="translate(-118.508 -43.856)" style="fill:#ff1101"/>
        <path data-name="패스 87" d="M209.035 43.856H207.4v1.638l1.638-1.638z" transform="translate(-116.584 -43.856)" style="fill:#cb000d"/>
        <path data-name="패스 88" d="M207.4 45.494h1.638v-1.638l-1.638 1.638z" transform="translate(-116.584 -43.856)" style="fill:#e60001"/>
        <path data-name="패스 89" d="M219.719 45.494h-1.637v-1.638l1.637 1.638z" transform="translate(-122.355 -43.856)" style="fill:#ff1101"/>
        <path data-name="패스 90" d="M216.158 43.856h-1.638v1.638l1.638-1.638z" transform="translate(-120.431 -43.856)" style="fill:#ff1901"/>
        <path data-name="패스 91" d="M214.52 45.494h1.638v-1.638l-1.638 1.638z" transform="translate(-120.431 -43.856)" style="fill:#e4000d"/>
        <path data-name="패스 92" d="M207.4 47.416h1.638v1.638l-1.638-1.638z" transform="translate(-116.584 -45.779)" style="fill:#ff2800"/>
        <path data-name="패스 93" d="M210.959 49.054h1.641v-1.638l-1.637 1.638z" transform="translate(-118.508 -45.779)" style="fill:#ff3301"/>
        <path data-name="패스 94" d="M212.6 47.416h-1.637v1.638l1.637-1.638z" transform="translate(-118.508 -45.779)" style="fill:#e61801"/>
        <path data-name="패스 95" d="M210.959 50.977h1.641v1.637l-1.637-1.637z" transform="translate(-118.508 -47.701)" style="fill:#ff1901"/>
        <path data-name="패스 96" d="M216.158 49.054h-1.638v-1.638l1.638 1.638z" transform="translate(-120.431 -45.779)" style="fill:#ff1101"/>
        <path data-name="패스 97" d="M214.52 47.416h1.638v1.638l-1.638-1.638z" transform="translate(-120.431 -45.779)" style="fill:#fe1a0e"/>
        <path data-name="패스 98" d="M218.082 49.054h1.637v-1.638l-1.637 1.638z" transform="translate(-122.355 -45.779)" style="fill:#fc1a1c"/>
        <path data-name="패스 99" d="M219.719 47.416h-1.637v1.638l1.637-1.638z" transform="translate(-122.355 -45.779)" style="fill:#ff2800"/>
        <path data-name="패스 100" d="M218.082 50.977h1.637v1.637l-1.637-1.637z" transform="translate(-122.355 -47.701)" style="fill:#ff2800"/>
        <path data-name="패스 101" d="M219.719 52.614h-1.637v-1.637l1.637 1.637z" transform="translate(-122.355 -47.701)" style="fill:#ff1901"/>
        <path data-name="패스 102" d="M216.158 50.977h-1.638v1.637l1.638-1.637z" transform="translate(-120.431 -47.701)" style="fill:#fb0026"/>
        <path data-name="패스 103" d="M214.52 52.614h1.638v-1.637l-1.638 1.637z" transform="translate(-120.431 -47.701)" style="fill:#ff4d01"/>
        <path data-name="패스 104" d="M210.959 56.175h1.641v-1.638l-1.637 1.638z" transform="translate(-118.508 -49.623)" style="fill:#ff7300"/>
        <path data-name="패스 105" d="M210.959 58.1h1.641v1.638l-1.641-1.638z" transform="translate(-118.508 -51.547)" style="fill:#ff4d01"/>
        <path data-name="패스 106" d="M212.6 59.737h-1.637V58.1l1.637 1.638z" transform="translate(-118.508 -51.547)" style="fill:#ff8001"/>
        <path data-name="패스 107" d="M207.4 59.737h1.638V58.1l-1.638 1.637z" transform="translate(-116.584 -51.547)" style="fill:#ff6601"/>
        <path data-name="패스 108" d="M216.158 56.175h-1.638v-1.638l1.638 1.638z" transform="translate(-120.431 -49.623)" style="fill:#ff4000"/>
        <path data-name="패스 109" d="M214.52 54.537h1.638v1.638l-1.638-1.638z" transform="translate(-120.431 -49.623)" style="fill:#ff2800"/>
        <path data-name="패스 110" d="M218.082 56.175h1.637v-1.638l-1.637 1.638z" transform="translate(-122.355 -49.623)" style="fill:#ff4d01"/>
        <path data-name="패스 111" d="M219.719 54.537h-1.637v1.638l1.637-1.638z" transform="translate(-122.355 -49.623)" style="fill:#ff3301"/>
        <path data-name="패스 112" d="M218.082 58.1h1.637v1.638l-1.637-1.638z" transform="translate(-122.355 -51.547)" style="fill:#ff6601"/>
        <path data-name="패스 113" d="M219.719 59.737h-1.637V58.1l1.637 1.638z" transform="translate(-122.355 -51.547)" style="fill:#ff8001"/>
        <path data-name="패스 114" d="M216.158 58.1h-1.638v1.638l1.638-1.638z" transform="translate(-120.431 -51.547)" style="fill:#ff5a00"/>
        <path data-name="패스 115" d="M214.52 59.737h1.638V58.1l-1.638 1.638z" transform="translate(-120.431 -51.547)" style="fill:#ff9901"/>
        <path data-name="패스 116" d="M209.035 63.3H207.4v-1.64l1.638 1.638z" transform="translate(-116.584 -53.469)" style="fill:#ff6601"/>
        <path data-name="패스 117" d="M207.4 61.66h1.638v1.64l-1.638-1.64z" transform="translate(-116.584 -53.469)" style="fill:#ff8001"/>
        <path data-name="패스 118" d="M210.959 63.3h1.641v-1.64l-1.641 1.64z" transform="translate(-118.508 -53.469)" style="fill:#ff8001"/>
        <path data-name="패스 119" d="M212.6 61.66h-1.637v1.64l1.637-1.64z" transform="translate(-118.508 -53.469)" style="fill:#ff9901"/>
        <path data-name="패스 120" d="M216.158 63.3h-1.638v-1.64l1.638 1.638z" transform="translate(-120.431 -53.469)" style="fill:#ff9901"/>
        <path data-name="패스 121" d="M214.52 61.66h1.638v1.64l-1.638-1.64z" transform="translate(-120.431 -53.469)" style="fill:#ff8001"/>
        <path data-name="패스 122" d="M219.719 61.66h-1.637v1.64l1.637-1.638z" transform="translate(-122.355 -53.469)" style="fill:#ff7300"/>
        <path data-name="패스 123" d="M223.281 49.054h-1.637v-1.638l1.637 1.638z" transform="translate(-124.279 -45.779)" style="fill:#ee0026"/>
        <path data-name="패스 124" d="M226.843 52.614H225.2v-1.637l1.638 1.637z" transform="translate(-126.202 -47.701)" style="fill:#fe1109"/>
        <path data-name="패스 125" d="M223.281 50.977h-1.637v1.637l1.637-1.637z" transform="translate(-124.279 -47.701)" style="fill:#fe1a0e"/>
        <path data-name="패스 126" d="M221.644 52.614h1.637v-1.637l-1.637 1.637z" transform="translate(-124.279 -47.701)" style="fill:#ff3301"/>
        <path data-name="패스 127" d="M223.281 56.175h-1.637v-1.638l1.637 1.638z" transform="translate(-124.279 -49.623)" style="fill:#ff4000"/>
        <path data-name="패스 128" d="M221.644 54.537h1.637v1.638l-1.637-1.638z" transform="translate(-124.279 -49.623)" style="fill:#fb292c"/>
        <path data-name="패스 129" d="M226.843 54.537H225.2v1.638l1.638-1.638z" transform="translate(-126.202 -49.623)" style="fill:#ff3301"/>
        <path data-name="패스 130" d="M223.281 58.1h-1.637v1.638l1.637-1.638z" transform="translate(-124.279 -51.547)" style="fill:#ff4000"/>
        <path data-name="패스 131" d="M205 63.3a.286.286 0 0 1-.2-.487l1.151-1.152V63.3z" transform="translate(-115.136 -53.469)" style="fill:#ff8c00"/>
        <path data-name="패스 132" d="M205 43.856a.286.286 0 0 0-.2.487l1.151 1.151v-1.638z" transform="translate(-115.136 -43.856)" style="fill:#b30001"/>
        <path d="M2.462 12.3c0-1.854 1.953-3.356 4.822-3.356s4.824 1.5 4.824 3.356-1.953 3.356-4.824 3.356-4.822-1.503-4.822-3.356zm2.255 0c0 .841 1 1.681 2.569 1.681s2.567-.84 2.567-1.681-.991-1.684-2.567-1.684-2.57.843-2.57 1.684zm51.025 2.082a.324.324 0 0 1-.329-.317V.318A.324.324 0 0 1 55.741 0h1.487a.322.322 0 0 1 .327.318v13.747a.322.322 0 0 1-.327.317zm-15.353 0a.323.323 0 0 1-.327-.317V9.223h-1.19a.479.479 0 0 1-.392-.19 34.152 34.152 0 0 1-3.463-4.784.114.114 0 0 0-.107-.074.119.119 0 0 0-.113.074l-2.377 4.8a.314.314 0 0 1-.287.182H30.32a.342.342 0 0 1-.336-.329.29.29 0 0 1 .031-.15L34.078.737a.328.328 0 0 1 .356-.2h1.858a.2.2 0 0 1 .2.285l-.533 1.065a.26.26 0 0 0 .009.307 35.935 35.935 0 0 0 4.1 5.713V.318a.323.323 0 0 1 .32-.318h1.481a.321.321 0 0 1 .325.318V3.4a.223.223 0 0 0 .227.219h2.086a.318.318 0 0 1 .327.313V5.2a.324.324 0 0 1-.327.319h-2.086a.224.224 0 0 0-.227.221v8.327a.321.321 0 0 1-.325.317zm-15.191 0a.321.321 0 0 1-.325-.317V.318A.322.322 0 0 1 25.2 0h1.481A.322.322 0 0 1 27 .318V3.4a.224.224 0 0 0 .228.219h2.086a.317.317 0 0 1 .325.313V5.2a.323.323 0 0 1-.325.319h-2.083a.225.225 0 0 0-.231.219v8.327a.322.322 0 0 1-.326.317zm37.155-.025a.322.322 0 0 1-.327-.318V9.786a.323.323 0 0 1 .327-.319h1.487a.323.323 0 0 1 .326.319v2.6a.125.125 0 0 0 .127.124H70.9a.322.322 0 0 1 .328.317v1.215a.323.323 0 0 1-.328.318zm10.814-1.2a.321.321 0 0 1-.327-.319v-1.253a.322.322 0 0 1 .327-.318h13.328a.323.323 0 0 1 .327.318v1.253a.321.321 0 0 1-.327.319zm-3.745-2.445a.32.32 0 0 1-.327-.318V5.682a.225.225 0 0 0-.226-.224h-1.253a.233.233 0 0 0-.22.2 3.8 3.8 0 0 1-3.728 3.088 3.929 3.929 0 0 1-3.854-4.228A3.95 3.95 0 0 1 63.668.3a3.812 3.812 0 0 1 3.716 3.062.264.264 0 0 0 .233.214h1.252a.222.222 0 0 0 .226-.22v-3a.321.321 0 0 1 .327-.318H70.9a.324.324 0 0 1 .329.318v10.05a.324.324 0 0 1-.329.318zm-7.467-6.2c0 1.6.766 2.324 1.713 2.324s1.712-.725 1.712-2.324c0-1.536-.766-2.326-1.712-2.326s-1.713.792-1.713 2.328zm-16.191.5c0-2.81 1.772-4.746 3.961-4.746s3.959 1.936 3.959 4.746c0 2.852-1.773 4.745-3.959 4.745s-3.961-1.889-3.961-4.742zm2.211 0c0 2 .784 2.914 1.75 2.914s1.747-.911 1.747-2.914c0-1.926-.782-2.915-1.747-2.915s-1.75.992-1.75 2.918zm-32.6 0c0-2.81 1.773-4.746 3.96-4.746s3.96 1.936 3.96 4.746c0 2.852-1.772 4.745-3.96 4.745s-3.962-1.889-3.962-4.742zm2.211 0c0 2 .783 2.914 1.749 2.914s1.748-.911 1.748-2.914c0-1.926-.782-2.915-1.748-2.915s-1.751.992-1.751 2.918zm57.043 4.214a.327.327 0 0 1-.288-.478L78.7.733a.34.34 0 0 1 .363-.2h1.859a.2.2 0 0 1 .185.286l-.571 1.064a.258.258 0 0 0 0 .307A31.967 31.967 0 0 0 85.4 8.965c.093.093.1.249-.088.255H83.18a.463.463 0 0 1-.385-.19 32.426 32.426 0 0 1-3.285-4.784.117.117 0 0 0-.111-.075.118.118 0 0 0-.109.075l-2.555 4.8a.327.327 0 0 1-.293.181zm-74.3-.65A.323.323 0 0 1 0 8.256V7.06a.321.321 0 0 1 .327-.318h5.656a.227.227 0 0 0 .228-.224v-.713a.226.226 0 0 0-.228-.223H2.841a.322.322 0 0 1-.326-.318V.406a.324.324 0 0 1 .326-.319h8.943a.324.324 0 0 1 .327.319v1.188a.323.323 0 0 1-.327.318h-7a.126.126 0 0 0-.128.125v1.59a.126.126 0 0 0 .128.124h7a.323.323 0 0 1 .327.318v1.195a.322.322 0 0 1-.327.318h-3.2a.226.226 0 0 0-.228.223v.712a.227.227 0 0 0 .228.224h5.658a.322.322 0 0 1 .327.318v1.2a.324.324 0 0 1-.327.32z" transform="translate(1.19 5.773)" style="stroke:transparent;stroke-miterlimit:10;fill:#fff"/>
    </g>
    <text transform="translate(0 59.443)" style="font-size:35px;font-family:GodoB,Godo B;letter-spacing:-.035em;fill:#fff"><tspan x="0" y="0">과학문화사업</tspan></text>
</svg>
